<svg width="375" height="429" viewBox="0 0 375 429" fill="none" xmlns="http://www.w3.org/2000/svg">
<rect x="-16" y="-7" width="401" height="436" fill="#34495E"/>
<path d="M286.769 106.712C288.64 104.941 288.344 102.441 286.112 101.157L281.902 98.7346C279.67 97.4505 278.329 94.3482 278.92 91.8421L283.989 70.3543C284.58 67.8482 283.534 67.2459 281.664 69.0173L255.697 93.6052C253.826 95.3765 254.123 97.8758 256.355 99.1606L260.564 101.582C262.795 102.867 264.138 105.969 263.547 108.474L258.477 129.962C257.886 132.468 258.932 133.07 260.803 131.299L286.769 106.712Z" fill="#3498DB"/>
<path d="M102.026 104.101C93.864 104.101 88 98.6045 88 90.2216C88 81.8203 93.8644 76.3233 102.026 76.3233C108.479 76.3233 113.516 79.7059 115.318 85.2026L108.773 87.5005C107.872 84.4856 105.28 82.684 102.026 82.684C97.9635 82.684 94.9486 85.5886 94.9486 90.2213C94.9486 94.8539 97.9635 97.7401 102.026 97.7401C105.28 97.7401 107.872 95.9385 108.773 92.9236L115.318 95.2216C113.516 100.718 108.479 104.101 102.026 104.101V104.101ZM136.054 76.7096H143.058V103.733H136.054V93.2001H126.09V103.733H119.086V76.7096H126.09V87.1696H136.054V76.7096ZM167.656 103.733L165.91 98.7331H155.101L153.373 103.733H146.258L156.203 76.7096H164.825L174.77 103.733H167.656H167.656ZM157.104 92.961H163.906L160.505 83.1806L157.104 92.961ZM190.194 104.101C182.031 104.101 176.167 98.5677 176.167 90.2216C176.167 81.8203 182.032 76.3233 190.194 76.3233C198.374 76.3233 204.239 81.82 204.239 90.2216C204.239 98.5678 198.374 104.101 190.194 104.101ZM190.194 97.7404C194.275 97.7404 197.326 94.8542 197.326 90.2215C197.326 85.5888 194.275 82.6843 190.194 82.6843C186.131 82.6843 183.116 85.5888 183.116 90.2215C183.116 94.8542 186.131 97.7404 190.194 97.7404ZM217.843 104.101C211.923 104.101 207.107 101.252 206.353 95.8285L213.615 94.174C213.817 97.1153 215.655 98.4941 218.137 98.4941C219.939 98.4941 221.042 97.63 221.042 96.0858C221.042 94.0637 218.449 93.3099 215.435 92.2804C211.629 91.0119 207.364 89.431 207.364 84.449C207.364 79.4119 211.445 76.3235 217.273 76.3235C222.016 76.3235 227.181 78.1987 228.303 83.7872L221.575 85.4418C221.189 82.9967 219.902 81.9305 217.733 81.9305C215.802 81.9305 214.442 82.6842 214.442 84.2652C214.442 85.7727 216.868 86.3793 219.644 87.2801C223.523 88.5669 228.303 90.3318 228.303 95.6814C228.303 101.619 223.303 104.101 217.843 104.101L217.843 104.101ZM235.693 104.101C233.726 104.101 232.072 102.447 232.072 100.498C232.072 98.4942 233.726 96.8397 235.693 96.8397C237.679 96.8397 239.333 98.4942 239.333 100.498C239.333 102.447 237.679 104.101 235.693 104.101Z" fill="white"/>
<path d="M93.2377 124.52C92.2961 124.52 91.3545 124.343 90.4521 123.99C89.5497 123.657 88.7454 123.166 88.0785 122.578C88 122.499 87.9804 122.382 88.0196 122.284L88.7062 119.949C88.7454 119.871 88.8043 119.812 88.8828 119.812C88.9612 119.792 89.0397 119.812 89.0985 119.871C90.1382 120.852 91.3152 121.734 92.7865 121.813C93.1788 121.832 93.6104 121.852 93.9831 121.734C95.1405 121.362 94.6501 120.185 93.7869 119.831C93.4927 119.714 93.0807 119.576 92.5511 119.419C91.7664 119.204 91.1191 118.968 90.6286 118.733C90.099 118.497 89.6478 118.125 89.2555 117.634C88.8828 117.124 88.6866 116.457 88.6866 115.653C88.6866 114.888 88.8828 114.221 89.2751 113.652C89.6674 113.083 90.2167 112.632 90.9033 112.338C91.5899 112.044 92.3941 111.887 93.2965 111.887C94.1008 111.887 94.8855 112.004 95.6701 112.259C96.4352 112.495 97.1218 112.828 97.7299 113.221C97.828 113.299 97.8672 113.417 97.8084 113.534L97.161 115.732C97.1414 115.81 97.0825 115.849 97.0041 115.869C96.9452 115.888 96.8668 115.888 96.8079 115.849C95.9252 115.3 95.0424 114.633 94.0027 114.496C93.3161 114.398 92.2764 114.437 92.041 115.261C91.7468 116.32 93.2965 116.595 94.0027 116.81C94.7874 117.046 95.4347 117.281 95.9448 117.517C96.4744 117.772 96.9452 118.164 97.3179 118.654C97.7103 119.164 97.9064 119.851 97.9064 120.675C97.9064 121.479 97.6907 122.166 97.2787 122.754C96.8864 123.343 96.3175 123.774 95.6113 124.088C94.9051 124.363 94.1204 124.52 93.2377 124.52ZM103.015 124.402C102.877 124.402 102.76 124.284 102.76 124.147V112.397C102.76 112.259 102.877 112.142 103.015 112.142H105.565C105.702 112.142 105.82 112.259 105.82 112.397V124.147C105.82 124.284 105.702 124.402 105.565 124.402H103.015ZM110.928 124.402C110.791 124.402 110.673 124.284 110.673 124.147V112.397C110.673 112.259 110.791 112.142 110.928 112.142H113.753C113.851 112.142 113.949 112.201 113.988 112.279L116.931 119.537L119.854 112.279C119.893 112.201 119.991 112.142 120.089 112.142H122.914C123.051 112.142 123.169 112.259 123.169 112.397V124.147C123.169 124.284 123.051 124.402 122.914 124.402H120.619C120.481 124.402 120.364 124.284 120.364 124.147V117.831L117.97 123.912C117.931 123.99 117.833 124.049 117.755 124.049H116.107C116.009 124.049 115.911 123.99 115.871 123.912L113.459 117.831V124.147C113.459 124.284 113.341 124.402 113.204 124.402H110.928ZM128.257 124.402C128.12 124.402 128.022 124.284 128.022 124.147V112.397C128.022 112.259 128.12 112.142 128.257 112.142H133.064C134.554 112.142 135.731 112.514 136.555 113.279C137.772 114.378 138.184 116.457 137.595 117.987C137.379 118.537 137.007 119.047 136.536 119.419C134.947 120.655 132.965 120.538 131.063 120.538V124.147C131.063 124.284 130.945 124.402 130.808 124.402H128.257ZM131.063 117.811C131.063 117.811 133.534 118.086 134.397 117.517C134.731 117.301 134.927 116.771 134.927 116.379C134.908 115.947 134.692 115.496 134.339 115.222C133.966 114.908 133.044 114.81 132.573 114.81L131.063 114.849V117.811ZM142.997 124.402C142.86 124.402 142.742 124.284 142.742 124.147V112.397C142.742 112.259 142.86 112.142 142.997 112.142H145.548C145.685 112.142 145.803 112.259 145.803 112.397V121.577H150.216C150.354 121.577 150.471 121.695 150.471 121.832V124.147C150.471 124.284 150.354 124.402 150.216 124.402H142.997ZM155.58 124.402C155.442 124.402 155.325 124.284 155.325 124.147V112.397C155.325 112.259 155.442 112.142 155.58 112.142H158.13C158.267 112.142 158.385 112.259 158.385 112.397V124.147C158.385 124.284 158.267 124.402 158.13 124.402H155.58ZM163.493 124.402C163.356 124.402 163.238 124.284 163.238 124.147V112.397C163.238 112.259 163.356 112.142 163.493 112.142H171.595C171.673 112.142 171.732 112.161 171.771 112.22C171.83 112.259 171.85 112.318 171.85 112.397L171.83 114.594C171.83 114.731 171.712 114.849 171.575 114.849H166.279V117.222H169.613C169.751 117.222 169.868 117.34 169.868 117.477V119.694C169.868 119.831 169.751 119.949 169.613 119.949H166.279V124.147C166.279 124.284 166.181 124.402 166.043 124.402H163.493ZM176.566 124.402C176.428 124.402 176.311 124.284 176.311 124.147V112.397C176.311 112.259 176.428 112.142 176.566 112.142H179.116C179.253 112.142 179.371 112.259 179.371 112.397V124.147C179.371 124.284 179.253 124.402 179.116 124.402H176.566ZM184.224 124.402V112.652C184.224 112.161 184.322 112.063 184.479 112.063H193.071C193.208 112.063 193.326 112.161 193.326 112.299V114.515C193.326 114.653 193.208 114.77 193.071 114.77H187.265V116.81H190.933C191.07 116.81 191.188 116.928 191.188 117.065V119.263C191.188 119.4 191.07 119.518 190.933 119.518H187.265V121.617H193.052C193.189 121.617 193.307 121.734 193.307 121.872V124.069C193.307 124.206 193.189 124.324 193.052 124.324H184.479C184.322 124.324 184.224 124.206 184.224 124.402ZM198.434 124.402C198.277 124.402 198.179 124.284 198.179 124.147V112.397C198.179 112.259 198.277 112.142 198.434 112.142H202.887C204.064 112.142 205.143 112.397 206.085 112.926C207.026 113.436 207.752 114.162 208.282 115.104C208.792 116.026 209.067 117.085 209.067 118.262C209.067 119.459 208.792 120.518 208.262 121.44C207.733 122.382 206.987 123.107 206.026 123.617C205.084 124.147 203.986 124.402 202.789 124.402H198.434ZM201.22 121.656H202.946C203.515 121.656 204.045 121.518 204.496 121.244C204.947 120.95 205.32 120.557 205.575 120.047C205.83 119.537 205.967 118.949 205.967 118.282C205.967 117.634 205.83 117.026 205.555 116.516C205.281 115.987 204.908 115.594 204.437 115.3C203.966 115.025 203.417 114.868 202.828 114.868H201.22V121.656Z" fill="#3498DB"/>
</svg>
