<svg width="250" height="427" viewBox="0 0 250 427" fill="none" xmlns="http://www.w3.org/2000/svg">
<path d="M0 -1H250V254C250 323.036 194.036 379 125 379C55.9644 379 0 323.036 0 254V-1Z" fill="#34495E"/>
<path d="M53.2612 216.829C72.0428 237.112 151.634 331.528 89.396 414.085C88.185 415.691 85.4754 415.582 84.4015 413.881C72.9823 395.79 24.7864 311.885 48.1486 217.886C48.6724 215.779 51.7058 215.148 53.2612 216.829Z" fill="#5EB4EE"/>
<path opacity="0.5" d="M60.7949 246.249C60.6065 245.829 61.2872 245.56 61.5154 245.964C71.9751 264.495 100.157 323.566 87.3212 403.352C87.3203 403.353 95.6538 323.88 60.7949 246.249Z" fill="white"/>
<path d="M74.7523 422.438C74.7523 422.438 112.337 334.323 17.5484 232.593C15.5349 230.432 11.6431 231.043 10.6693 233.684C1.49356 258.568 -26.6161 357.224 74.7523 422.438Z" fill="#3498DB"/>
<path opacity="0.5" d="M71.9499 412.867C68.5973 397.223 55.0799 337.331 34.1631 285.612C33.9693 285.133 33.1595 285.34 33.2957 285.834C39.9863 310.205 62.7345 392.34 71.0788 413.068C71.2673 413.536 72.0545 413.355 71.9499 412.867Z" fill="white"/>
<path d="M247.82 426.447L0.977809 426.614C0.174393 426.614 37.3308 394.61 37.3308 394.61C37.4832 394.481 38.0576 394.377 38.6158 394.377L211.047 394.371C211.604 394.371 212.174 394.472 212.321 394.601L223.86 404.547L229.375 409.306L248.716 425.982C249.014 426.236 248.613 426.447 247.82 426.447Z" fill="url(#paint0_linear_976_469)"/>
<path d="M10.9732 423.338C10.846 423.338 10.7324 423.259 10.6891 423.139C10.6459 423.019 10.6819 422.885 10.7793 422.804L42.1144 396.689C42.1685 396.644 42.237 396.619 42.3073 396.619L209.078 396.607C209.149 396.607 209.219 396.632 209.273 396.678L239.961 422.673C240.058 422.755 240.093 422.889 240.05 423.007C240.006 423.126 239.893 423.205 239.767 423.205L10.9732 423.338ZM42.4173 397.223L11.8063 422.735L238.945 422.604L208.968 397.212L42.4173 397.223Z" fill="white"/>
<path d="M125.624 423.094C125.623 423.094 125.622 423.094 125.621 423.094C125.454 423.092 125.321 422.957 125.322 422.79L125.526 396.939C125.527 396.773 125.662 396.639 125.828 396.639C125.829 396.639 125.83 396.639 125.831 396.639C125.998 396.641 126.131 396.777 126.13 396.943L125.926 422.794C125.924 422.96 125.79 423.094 125.624 423.094Z" fill="white"/>
<path d="M125.555 411.401C119.572 411.401 114.517 410.368 113.257 408.886C112.987 408.57 112.879 408.235 112.935 407.89C113.27 405.818 119.727 404.699 125.632 404.698C125.635 404.698 125.639 404.698 125.642 404.698C131.543 404.698 137.971 405.816 138.266 407.889C138.315 408.233 138.202 408.565 137.93 408.88C136.644 410.363 131.563 411.399 125.573 411.401C125.567 411.401 125.561 411.401 125.555 411.401ZM125.644 405.3C125.639 405.3 125.636 405.3 125.632 405.3C118.654 405.302 113.741 406.69 113.531 407.986C113.504 408.151 113.565 408.317 113.717 408.494C114.691 409.638 119.07 410.796 125.554 410.796C125.561 410.796 125.567 410.796 125.573 410.796C132.072 410.794 136.479 409.63 137.474 408.482C137.629 408.304 137.693 408.137 137.67 407.972C137.485 406.683 132.608 405.3 125.644 405.3ZM113.233 407.938H113.235H113.233Z" fill="white"/>
<path d="M66.7426 411.402C60.9536 411.402 56.7869 410.469 56.1232 409.023C55.988 408.729 55.923 408.268 56.3775 407.739C57.8464 406.032 64.3044 404.694 71.0806 404.693C71.0843 404.693 71.0888 404.693 71.0924 404.693C76.6946 404.693 80.8371 405.584 81.6504 406.965C81.8596 407.32 81.8614 407.704 81.6549 408.077C80.6207 409.94 74.0788 411.4 66.7597 411.403C66.7552 411.402 66.7489 411.402 66.7426 411.402ZM56.8356 408.133C56.5687 408.444 56.6146 408.647 56.6724 408.773C57.1349 409.781 60.7417 410.8 66.7426 410.8C66.7489 410.8 66.7543 410.8 66.7606 410.8C74.3547 410.797 80.3204 409.238 81.1283 407.784C81.2302 407.599 81.2311 407.441 81.1319 407.271C80.5539 406.29 76.9201 405.298 71.0933 405.298C71.0897 405.298 71.0861 405.298 71.0816 405.298C64.5713 405.298 58.18 406.571 56.8356 408.133Z" fill="white"/>
<path d="M22.3265 413.875C22.1678 413.875 22.0344 413.751 22.0254 413.591C22.0163 413.424 22.1435 413.282 22.3094 413.272L66.5974 410.808L70.518 405.268L34.9152 403.37C34.7493 403.361 34.6212 403.219 34.6302 403.052C34.6393 402.886 34.7817 402.761 34.9476 402.767L71.0969 404.694C71.2069 404.701 71.3043 404.766 71.3521 404.864C71.3999 404.963 71.3899 405.08 71.3268 405.17L67.0059 411.275C66.9527 411.35 66.8679 411.397 66.7768 411.402L22.3437 413.875C22.3382 413.875 22.3328 413.875 22.3265 413.875Z" fill="white"/>
<path d="M17.4041 420.264C16.1066 420.264 15.0885 420.262 14.6638 420.259C14.497 420.257 14.3636 420.121 14.3645 419.954C14.3654 419.787 14.5006 419.657 14.6684 419.654C15.9271 419.666 22.4131 419.656 25.8981 419.651L28.1758 419.648C54.0439 419.635 79.6702 414.099 83.0174 407.802C83.4529 406.981 83.4448 406.216 82.9903 405.46C80.6675 401.595 67.6551 399 50.6102 399C50.6039 399 50.5994 399 50.594 399L40.173 399.001C40.0062 399.001 39.8709 398.866 39.8709 398.699C39.8709 398.532 40.0062 398.397 40.173 398.397L50.594 398.396C50.5994 398.396 50.6057 398.396 50.6111 398.396C68.1312 398.396 81.0417 401.046 83.5079 405.149C84.0724 406.087 84.0859 407.076 83.5503 408.084C81.8884 411.211 75.1789 414.222 64.6578 416.563C53.9961 418.934 41.0395 420.244 28.1777 420.251L25.9 420.254C23.5889 420.259 19.9568 420.264 17.4041 420.264Z" fill="white"/>
<path d="M184.05 411.362C176.766 411.362 170.288 409.907 169.297 408.047C169.1 407.678 169.107 407.297 169.319 406.945C170.148 405.563 174.3 404.671 179.897 404.669C179.901 404.669 179.904 404.669 179.909 404.669C186.651 404.669 193.047 406.002 194.472 407.704C194.911 408.228 194.841 408.685 194.705 408.976C194.029 410.424 189.855 411.361 184.069 411.362C184.063 411.362 184.057 411.362 184.05 411.362ZM179.908 405.272C179.904 405.272 179.901 405.272 179.896 405.272C174.072 405.273 170.427 406.27 169.836 407.255C169.734 407.425 169.732 407.581 169.829 407.763C170.584 409.18 176.609 410.759 184.05 410.759C184.057 410.759 184.062 410.759 184.068 410.759C190.068 410.757 193.685 409.732 194.157 408.721C194.214 408.597 194.262 408.396 194.008 408.092C192.706 406.536 186.381 405.272 179.908 405.272Z" fill="white"/>
<path d="M228.66 413.794C228.655 413.794 228.649 413.794 228.643 413.794L184.051 411.361C183.957 411.356 183.872 411.308 183.819 411.231L179.646 405.141C179.585 405.05 179.576 404.934 179.625 404.837C179.673 404.739 179.77 404.675 179.879 404.669L215.866 402.732C216.031 402.721 216.174 402.85 216.183 403.017C216.192 403.183 216.064 403.325 215.898 403.335L180.447 405.242L184.233 410.767L228.676 413.192C228.841 413.201 228.97 413.343 228.961 413.509C228.953 413.67 228.82 413.794 228.66 413.794Z" fill="white"/>
<path d="M230.19 420.155C228.321 420.155 226.357 420.154 224.817 420.153L222.435 420.152C222.402 420.152 222.37 420.152 222.338 420.152C209.587 420.152 196.769 418.858 186.233 416.508C175.804 414.18 169.181 411.179 167.584 408.058C167.072 407.056 167.101 406.075 167.671 405.143C170.143 401.101 183.364 398.384 200.57 398.382L210.927 398.382C211.094 398.382 211.229 398.517 211.229 398.684C211.229 398.85 211.094 398.986 210.927 398.986L200.57 398.987C183.566 398.988 170.552 401.59 168.186 405.459C167.727 406.21 167.705 406.97 168.122 407.784C171.331 414.057 196.655 419.55 222.343 419.55C222.374 419.55 222.403 419.55 222.435 419.55L224.818 419.551C228.585 419.553 234.889 419.555 236.127 419.544C236.128 419.544 236.129 419.544 236.13 419.544C236.295 419.544 236.43 419.676 236.432 419.842C236.434 420.009 236.3 420.145 236.134 420.147C235.399 420.153 232.893 420.155 230.19 420.155Z" fill="white"/>
<path d="M225.041 407.069V225.23C225.041 223.353 223.505 221.819 221.63 221.819C219.754 221.819 218.219 223.353 218.219 225.23V407.07C219.015 407.364 220.339 407.74 221.999 407.677C223.287 407.628 224.331 407.333 225.041 407.069Z" fill="#5EB4EE"/>
<path d="M236.81 264.428L192.188 252.454C191.239 252.199 190.48 250.909 190.48 249.581C189.999 244.526 189.663 238.675 189.682 232.176C189.7 226.116 190.025 220.633 190.48 215.847C190.489 215.588 190.535 214.758 190.978 214.009C191.287 213.489 191.713 213.103 192.188 212.975L236.81 201C237.716 201.021 239.065 201.28 240.107 202.637C241.142 203.982 241.403 205.792 241.503 206.487C242.069 210.401 242.069 231.2 241.503 259.577C241.503 261.847 239.345 265.109 236.81 264.428Z" fill="#3498DB"/>
<path d="M212.577 243.825C212.942 247.149 203.9 250.87 192.38 252.137C180.861 253.404 171.225 251.737 170.86 248.413C170.495 245.09 179.537 241.368 191.057 240.101C202.577 238.835 212.211 240.502 212.577 243.825Z" fill="url(#paint1_linear_976_469)"/>
<path d="M212.171 245.259C211.955 245.528 211.67 245.891 211.338 246.344C211.109 246.656 210.856 247.01 210.59 247.405C209.958 248.341 209.242 249.503 208.542 250.865V250.866C208.318 251.304 208.094 251.763 207.875 252.243C207.732 252.557 207.59 252.88 207.452 253.211L207.451 253.213C206.968 254.373 206.522 255.631 206.153 256.982C205.969 257.655 205.806 258.351 205.666 259.068C205.196 261.474 205 264.12 205.266 266.954C205.271 267.02 205.278 267.084 205.286 267.149V267.15C205.567 269.939 206.245 272.376 207.028 274.404V274.405C207.264 275.018 207.51 275.592 207.759 276.128C208.064 276.79 208.372 277.394 208.668 277.934C208.348 278.085 208.009 278.241 207.65 278.399C207.564 278.436 207.477 278.475 207.387 278.513C207.175 278.605 206.957 278.698 206.732 278.792C206.597 278.847 206.46 278.903 206.32 278.958C205.622 279.239 204.868 279.521 204.06 279.794C203.806 279.88 203.546 279.967 203.281 280.05L203.121 280.101C202.832 280.192 202.536 280.28 202.234 280.369C201.643 280.541 201.028 280.706 200.389 280.862H200.388L200.297 280.884C200.012 280.953 199.722 281.02 199.428 281.085C199.369 281.098 199.308 281.112 199.248 281.125C198.91 281.197 198.566 281.268 198.217 281.334C197.702 281.432 197.174 281.523 196.635 281.604C196.312 281.655 195.984 281.7 195.654 281.742C195.529 281.758 195.404 281.774 195.278 281.79H195.277C194.943 281.83 194.605 281.866 194.262 281.899C193.999 281.925 193.734 281.948 193.466 281.968C193.241 281.985 193.019 282.001 192.797 282.014C192.459 282.036 192.124 282.052 191.793 282.066C191.649 282.07 191.507 282.076 191.365 282.079H191.364C191.027 282.09 190.693 282.095 190.364 282.096C189.856 282.099 189.359 282.094 188.87 282.079C188.523 282.069 188.181 282.055 187.843 282.038C187.73 282.032 187.618 282.025 187.507 282.019C187.172 281.998 186.842 281.976 186.519 281.948C185.945 281.902 185.389 281.843 184.85 281.777C184.491 281.733 184.14 281.685 183.798 281.635C183.766 281.63 183.733 281.625 183.701 281.62C183.369 281.571 183.044 281.518 182.728 281.463C182.018 281.342 181.351 281.208 180.729 281.07C180.46 281.012 180.198 280.951 179.947 280.891L179.648 280.818C179.61 280.809 179.571 280.8 179.533 280.79C179.55 280.719 179.568 280.646 179.585 280.573V280.572C179.739 279.928 179.897 279.184 180.039 278.35C180.378 276.353 180.625 273.843 180.492 270.976V270.973C180.432 269.673 180.293 268.3 180.049 266.869V266.868C179.985 266.492 179.914 266.111 179.835 265.728C179.593 264.55 179.298 263.429 178.961 262.365C178.881 262.11 178.798 261.858 178.713 261.61L178.711 261.605C178.57 261.191 178.422 260.787 178.27 260.392C177.619 258.702 176.877 257.177 176.111 255.823V255.822C175.85 255.358 175.585 254.916 175.32 254.493C174.602 253.346 173.884 252.345 173.218 251.492L173.217 251.491C173.133 251.383 173.049 251.278 172.967 251.174L172.646 250.78C172.467 250.563 172.293 250.356 172.125 250.164C171.795 249.783 171.493 249.449 171.226 249.163C171.531 249.287 171.863 249.418 172.22 249.553C172.517 249.666 172.832 249.782 173.164 249.899C173.977 250.186 174.89 250.483 175.898 250.767C175.92 250.772 175.941 250.778 175.963 250.784C176.253 250.866 176.551 250.946 176.856 251.025L177.054 251.075C177.862 251.28 178.722 251.475 179.628 251.649L180.15 251.745C180.298 251.771 180.448 251.797 180.6 251.823C180.802 251.858 181.004 251.89 181.212 251.921H181.213C181.921 252.031 182.655 252.127 183.41 252.206C183.681 252.234 183.953 252.259 184.229 252.283H184.23C184.284 252.287 184.338 252.292 184.392 252.296C184.681 252.32 184.97 252.341 185.265 252.359C185.909 252.399 186.568 252.426 187.242 252.437C187.563 252.442 187.885 252.445 188.212 252.442C188.221 252.442 188.228 252.442 188.237 252.441H188.238C188.563 252.44 188.893 252.436 189.225 252.425C189.848 252.409 190.481 252.377 191.124 252.331C191.375 252.314 191.627 252.293 191.882 252.272C191.957 252.264 192.032 252.258 192.107 252.25C192.117 252.25 192.126 252.249 192.136 252.247C192.46 252.218 192.78 252.183 193.097 252.146H193.098C193.768 252.069 194.423 251.977 195.064 251.873C195.351 251.827 195.635 251.778 195.917 251.726C195.975 251.715 196.032 251.705 196.089 251.695C196.358 251.644 196.624 251.592 196.887 251.538C197.634 251.385 198.359 251.216 199.062 251.033C199.259 250.982 199.452 250.93 199.645 250.878C199.8 250.835 199.953 250.793 200.104 250.749C200.268 250.703 200.431 250.654 200.592 250.606C201.476 250.343 202.32 250.062 203.125 249.769C203.18 249.751 203.235 249.73 203.29 249.708L204.185 249.369C204.196 249.365 204.207 249.36 204.217 249.356C205.157 248.986 206.038 248.604 206.854 248.219C207.165 248.073 207.467 247.927 207.76 247.781C208.716 247.306 209.577 246.835 210.333 246.393C210.644 246.212 210.939 246.036 211.216 245.866C211.561 245.65 211.881 245.448 212.171 245.259Z" fill="url(#paint2_linear_976_469)"/>
<path opacity="0.4" d="M208.093 249.094L207.995 248.708L207.758 247.778L206.853 248.216L207.088 249.143L205.977 256.288V256.289V256.288L204.215 249.353L204.184 249.365L203.736 249.535L203.289 249.704C203.234 249.726 203.179 249.746 203.124 249.766L202.082 256.472L200.591 250.603C200.43 250.651 200.268 250.699 200.103 250.746C199.952 250.789 199.799 250.832 199.644 250.875C199.452 250.927 199.258 250.979 199.061 251.03L198.186 256.657L196.886 251.535C196.623 251.589 196.357 251.641 196.088 251.692C196.031 251.703 195.975 251.713 195.916 251.723C195.635 251.775 195.351 251.823 195.063 251.87L194.29 256.842L193.097 252.144H193.096C192.779 252.181 192.459 252.214 192.135 252.245C192.125 252.246 192.116 252.247 192.106 252.247C192.031 252.255 191.957 252.262 191.881 252.269C191.627 252.291 191.374 252.311 191.123 252.329L190.394 257.027L189.225 252.423C188.893 252.434 188.564 252.438 188.238 252.439H188.237C188.228 252.44 188.221 252.44 188.212 252.44C187.885 252.442 187.562 252.44 187.242 252.435L186.499 257.212L185.266 252.358C184.971 252.341 184.681 252.319 184.393 252.295C184.366 252.293 184.339 252.291 184.312 252.289C184.285 252.286 184.258 252.284 184.231 252.282H184.23L183.411 252.205L182.604 257.397L181.214 251.92H181.213L180.601 251.822C180.45 251.796 180.3 251.77 180.151 251.744L179.629 251.648L178.707 257.581L177.055 251.074L176.857 251.024C176.629 250.965 176.405 250.905 176.185 250.844C176.111 250.823 176.037 250.804 175.965 250.783L175.923 250.619L175.9 250.766L175.321 254.493C175.586 254.916 175.851 255.358 176.112 255.821L176.542 253.053L178.321 260.061V260.061L178.27 260.388C178.422 260.783 178.57 261.188 178.711 261.602L178.713 261.606L178.94 262.499L180.049 266.866V266.867L180.72 269.509L180.492 270.97V270.973C180.625 273.839 180.379 276.349 180.039 278.347L179.585 280.569V280.57C179.568 280.643 179.55 280.716 179.533 280.787C179.571 280.797 179.61 280.806 179.648 280.815L179.947 280.888L180.227 279.088L181.338 271.944L183.118 278.957V278.957L182.729 281.462C183.045 281.517 183.37 281.57 183.702 281.619L183.738 281.392L183.8 281.634C184.141 281.684 184.494 281.731 184.852 281.776L184.123 278.91V278.909L185.235 271.761L187.015 278.769V278.77L186.521 281.946C186.844 281.974 187.174 281.997 187.508 282.017L187.634 281.208L187.845 282.037C188.182 282.054 188.525 282.068 188.872 282.078L188.02 278.726V278.725L189.131 271.578L190.911 278.586V278.587L190.365 282.095C190.693 282.094 191.027 282.088 191.365 282.078H191.366L191.529 281.023L191.794 282.065C192.125 282.051 192.46 282.035 192.798 282.013L191.916 278.539V278.538L193.027 271.391L194.807 278.399V278.4L194.263 281.897C194.606 281.865 194.944 281.829 195.278 281.788H195.278L195.425 280.838L195.654 281.74C195.986 281.698 196.313 281.652 196.635 281.602L195.81 278.357V278.356L196.922 271.208L198.702 278.216V278.217L198.218 281.333C198.567 281.266 198.911 281.196 199.249 281.123L199.321 280.655L199.429 281.083L200.298 280.882L200.389 280.86L199.707 278.172V278.171L200.818 271.025L202.598 278.032V278.033L202.235 280.366C202.538 280.278 202.834 280.189 203.122 280.098L203.282 280.048C203.547 279.964 203.807 279.877 204.061 279.792L203.603 277.984V277.983L204.714 270.838L206.494 277.846V277.847L206.321 278.956C206.46 278.9 206.598 278.844 206.733 278.789C206.958 278.695 207.176 278.602 207.388 278.51C207.478 278.472 207.564 278.434 207.651 278.396L207.499 277.802V277.802L207.761 276.126C207.512 275.591 207.266 275.016 207.029 274.403L206.881 275.363L205.101 268.354L205.288 267.149V267.148C205.28 267.083 205.274 267.019 205.267 266.953C205.001 264.119 205.198 261.473 205.668 259.067C205.808 258.351 205.972 257.655 206.155 256.981L207.453 253.212L207.454 253.21L207.708 251.576L207.877 252.242C208.095 251.762 208.32 251.303 208.544 250.865V250.864L208.093 249.094ZM199.916 251.946L201.696 258.953V258.955L200.584 266.103L198.804 259.096V259.094L199.916 251.946ZM196.02 252.129L197.8 259.137V259.138L196.689 266.285L194.909 259.277V259.276L196.02 252.129ZM192.123 252.317L193.903 259.325V259.326L192.792 266.472L191.012 259.464V259.463L192.123 252.317ZM188.228 252.499L190.008 259.507V259.508L188.896 266.656L187.116 259.648V259.647L188.228 252.499ZM184.333 252.683L186.113 259.695V259.696L185.002 266.842L183.222 259.83V259.829L184.333 252.683ZM179.325 260.015V260.015L180.436 252.869L182.217 259.877V259.877L181.105 267.025L179.325 260.015ZM183.505 276.472L181.724 269.461L182.835 262.313L184.616 269.326L183.505 276.472ZM187.399 276.286L185.619 269.277L186.73 262.13L188.51 269.139L187.399 276.286ZM191.296 276.102L189.516 269.093L190.627 261.946L192.406 268.955L191.296 276.102ZM195.191 275.918L193.411 268.909L194.522 261.761L196.302 268.77L195.191 275.918ZM199.087 275.734L197.307 268.725L198.418 261.577L200.198 268.586L199.087 275.734ZM202.983 275.549L201.204 268.541V268.54L202.314 261.393L204.094 268.402L202.983 275.549ZM204.48 265.919L202.7 258.911V258.91L203.811 251.764L205.591 258.772V258.773L204.48 265.919Z" fill="white"/>
<path d="M209.772 240.234C210.121 240.34 210.447 240.52 210.778 240.693C211.108 240.87 211.432 241.069 211.743 241.311C212.051 241.552 212.349 241.839 212.591 242.2C212.715 242.377 212.814 242.581 212.895 242.793C212.914 242.847 212.929 242.903 212.945 242.958C212.961 243.014 212.98 243.068 212.988 243.126C213.008 243.24 213.03 243.355 213.034 243.471C213.046 243.703 213.028 243.936 212.978 244.156C212.927 244.375 212.853 244.581 212.763 244.774C212.578 245.155 212.34 245.484 212.082 245.771C211.561 246.348 210.971 246.795 210.365 247.192C209.756 247.587 209.128 247.931 208.487 248.24C207.848 248.551 207.198 248.829 206.542 249.086C205.229 249.599 203.891 250.026 202.543 250.399C199.844 251.142 197.098 251.671 194.336 252.051C191.573 252.427 188.791 252.653 186.001 252.706C184.606 252.732 183.208 252.712 181.811 252.636C180.415 252.558 179.019 252.427 177.628 252.205C176.933 252.093 176.24 251.961 175.551 251.793C174.862 251.626 174.176 251.425 173.501 251.168C172.828 250.908 172.161 250.596 171.538 250.146C171.384 250.031 171.232 249.909 171.088 249.771C170.943 249.637 170.807 249.484 170.681 249.319C170.554 249.155 170.445 248.967 170.355 248.768C170.266 248.568 170.201 248.35 170.173 248.128C170.144 247.905 170.144 247.678 170.178 247.459C170.212 247.241 170.273 247.033 170.352 246.838C170.515 246.451 170.739 246.116 170.988 245.823C173.484 242.89 176.636 243.518 176.636 243.518C176.005 243.771 175.601 243.96 174.998 244.26C174.395 244.56 173.808 244.889 173.26 245.257C172.713 245.625 172.199 246.038 171.803 246.508C171.604 246.742 171.446 246.991 171.341 247.243C171.291 247.369 171.256 247.495 171.236 247.618C171.217 247.742 171.22 247.863 171.235 247.983C171.251 248.103 171.286 248.22 171.338 248.336C171.391 248.451 171.455 248.566 171.541 248.675C171.707 248.894 171.928 249.097 172.176 249.278C172.676 249.64 173.271 249.923 173.888 250.156C174.507 250.39 175.152 250.577 175.807 250.733C176.463 250.89 177.129 251.016 177.8 251.121C179.142 251.33 180.505 251.455 181.87 251.525C183.236 251.595 184.607 251.609 185.977 251.579C188.719 251.518 191.459 251.285 194.177 250.906C196.893 250.523 199.59 249.993 202.224 249.257C203.54 248.889 204.84 248.468 206.102 247.97C206.733 247.721 207.355 247.452 207.958 247.156C208.562 246.862 209.148 246.538 209.698 246.178C210.247 245.818 210.763 245.415 211.168 244.961C211.372 244.735 211.538 244.494 211.654 244.253C211.71 244.132 211.752 244.011 211.779 243.894C211.806 243.776 211.812 243.661 211.806 243.548C211.806 243.491 211.79 243.436 211.782 243.379C211.78 243.351 211.768 243.324 211.761 243.296C211.752 243.268 211.745 243.241 211.736 243.213C211.691 243.104 211.642 242.994 211.565 242.888C211.421 242.674 211.217 242.471 210.982 242.289C210.745 242.106 210.479 241.943 210.199 241.794C209.917 241.647 209.619 241.516 209.316 241.395C208.092 240.922 206.766 240.626 205.431 240.41C204.093 240.195 203.155 240.095 201.791 240.019C201.66 239.794 205.834 239.036 209.772 240.234Z" fill="url(#paint3_linear_976_469)"/>
<path fill-rule="evenodd" clip-rule="evenodd" d="M101.546 305.416C100.968 300.397 103.057 295.783 106.547 293.432C107.597 292.724 108.382 291.68 108.827 290.495C109.664 288.259 111.624 286.579 114.071 286.296C114.077 286.296 114.084 286.295 114.091 286.295C115.21 286.169 116.216 285.539 116.717 284.53C118.195 281.55 123.881 278.171 127.166 277.792C132.629 277.161 136.718 281.455 137.427 287.601C138.136 293.747 132.215 300.66 126.752 301.29C125.99 301.378 125.238 301.367 124.504 301.265C123.527 301.129 122.696 301.923 122.813 302.901C122.816 302.921 122.818 302.941 122.82 302.961C123.606 309.77 119.48 315.84 113.607 316.518C107.731 317.197 102.332 312.226 101.546 305.416Z" fill="url(#paint4_linear_976_469)"/>
<path d="M140.059 329.861C140.059 329.861 143.476 339.352 143.788 343.218C144.099 347.085 127.207 356.463 127.207 356.463C127.081 356.206 126.86 355.672 126.881 354.966C126.902 354.211 127.188 353.662 127.337 353.416C128.618 352.4 130.425 350.798 132.572 348.801C135.17 346.383 137.73 343.746 137.574 342.867C137.263 341.11 133.845 330.916 133.845 330.916L140.059 329.861Z" fill="url(#paint5_linear_976_469)"/>
<path d="M134.428 293.969C138.211 290.988 142.082 286.385 143.299 284.014C145.404 279.911 145.987 278.889 147.324 275.805C147.462 274.435 147.266 270.942 149.448 269.24C151.965 267.274 153.068 267.43 153.068 267.43C153.068 267.43 153.316 269.218 152.364 270.447C151.411 271.676 151.183 275.873 149.612 277.003C149.556 277.044 149.503 277.072 149.448 277.104C148.957 280.077 148.173 282.403 147.517 284.02C144.889 290.503 143.062 290.796 137.503 298.971C137.231 299.37 136.7 300.157 136.142 300.08C135.094 299.932 134.643 296.836 134.428 293.969Z" fill="url(#paint6_linear_976_469)"/>
<path d="M126.598 363.419C126.598 363.419 123.592 364.087 123.592 364.755C123.592 365.424 125.597 369.432 127.935 370.1C130.273 370.768 129.939 369.098 128.937 368.095C127.934 367.093 127.6 363.085 126.598 363.419Z" fill="url(#paint7_linear_976_469)"/>
<path d="M127.718 353.306C127.718 353.306 124.651 353.037 124.449 353.674C124.248 354.311 124.951 358.737 126.98 360.079C129.009 361.421 129.193 359.727 128.539 358.47C127.886 357.212 128.774 353.288 127.718 353.306Z" fill="url(#paint8_linear_976_469)"/>
<path d="M124.846 329.473C124.846 329.473 129.806 344.976 128.563 350.599C127.321 356.223 125.456 363.606 125.456 363.606C125.456 363.606 124.919 364.213 126.59 364.581C126.841 364.636 127.098 364.526 127.238 364.311C128.4 362.515 133.639 354.228 134.467 349.545C135.399 344.273 130.738 330.915 130.738 330.915L124.846 329.473Z" fill="url(#paint9_linear_976_469)"/>
<path fill-rule="evenodd" clip-rule="evenodd" d="M139.022 322.153L147.096 341.735C147.126 341.83 147.152 341.969 147.096 342.103C146.836 342.723 143.898 343.565 140.943 343.685C139.016 343.764 135.966 345.369 135.61 345.626C135.578 345.649 135.424 345.768 135.249 345.738C135.066 345.706 134.955 345.532 134.913 345.455L131.111 323.727L139.022 322.153Z" fill="url(#paint10_linear_976_469)"/>
<path fill-rule="evenodd" clip-rule="evenodd" d="M133.694 323.345C133.694 323.345 134.57 329.118 134.702 332.993C134.834 336.867 136.454 346.337 136.454 346.337C136.454 346.337 136.636 347.888 128.57 347.595C127.916 347.632 125.736 347.274 125.517 347.057C125.299 346.839 125.299 346.675 125.299 346.675C125.299 346.675 121.402 327.761 122.71 324.491L133.694 323.345Z" fill="url(#paint11_linear_976_469)"/>
<path d="M136.974 296.957C137.195 297.33 137.228 297.69 137.239 297.841C137.976 307.214 138.274 313.859 138.274 313.859C138.363 315.852 138.642 318.715 139.522 322.18C137.403 322.889 135.621 323.448 134.321 323.844C134.321 323.844 124.718 326.773 121.346 325.152C121.187 325.075 121.087 324.952 121.087 324.952C121.087 324.952 121.087 324.952 121.087 324.952C121.087 324.952 120.994 324.796 120.999 324.585C121.039 322.657 122.81 311.155 122.81 311.155C123.373 307.503 123.707 300.516 124.814 297.13C124.875 296.942 124.979 296.644 125.234 296.343C126.339 295.044 128.153 296.238 132.202 295.9C132.634 295.864 135.037 295.599 136.14 296.194C136.699 296.497 136.973 296.957 136.974 296.957Z" fill="url(#paint12_linear_976_469)"/>
<path fill-rule="evenodd" clip-rule="evenodd" d="M132.164 290.592L130.771 295.628C130.723 295.853 130.517 296.941 131.195 297.929C131.307 298.092 132.092 299.197 133.073 299.072C133.97 298.956 134.801 297.842 134.725 296.374L135.354 291.046L132.164 290.592Z" fill="url(#paint13_linear_976_469)"/>
<path fill-rule="evenodd" clip-rule="evenodd" d="M134.707 282.659C133.428 281.629 127.048 284.339 126.311 285.517C125.953 286.09 126.607 287.574 127.372 288.948C127.185 288.938 127.007 289.031 126.865 289.298C126.383 290.205 128.095 291.359 129.004 291.568C129.076 291.673 129.119 291.734 129.119 291.734C129.119 291.734 132.028 294.516 136.366 292.102C140.704 289.69 134.707 282.659 134.707 282.659Z" fill="url(#paint14_linear_976_469)"/>
<path fill-rule="evenodd" clip-rule="evenodd" d="M126.463 288.984C126.463 288.984 130.428 291.514 130.21 284.158C130.21 284.158 132.354 285.81 132.603 283.785C132.603 283.785 136.075 284.04 136.075 282.608C136.075 281.175 130.461 278.765 127.4 282.358C124.339 285.95 126.463 288.984 126.463 288.984Z" fill="url(#paint15_linear_976_469)"/>
<path d="M137.484 269.139C135.408 271.358 136.599 276.413 136.599 276.413C136.599 276.413 136.653 276.51 136.752 276.646C136.49 278.69 135.972 281.125 134.951 283.752C132.486 290.093 128.429 294.114 126.016 296.153C125.725 296.359 125.312 296.72 125.06 297.286C124.463 298.633 125.157 300.725 126.324 301.146C126.64 301.259 127.62 301.478 129.947 299.178C132.412 296.744 134.558 293.294 136.429 286.748C137.08 284.469 137.847 281.291 138.344 277.396C138.536 277.331 138.739 277.206 138.948 277C140.26 275.71 139.791 271.463 140.495 270.146C141.201 268.829 140.495 266.727 140.495 266.727C140.495 266.727 139.559 266.919 137.484 269.139Z" fill="url(#paint16_linear_976_469)"/>
<path d="M165.404 232.581C165.251 232.875 165.091 233.162 164.923 233.441C164.801 233.645 164.675 233.845 164.546 234.042C162.372 237.339 159.149 239.621 155.559 240.672C155.349 240.734 155.138 240.791 154.925 240.844C154.794 240.878 154.662 240.909 154.529 240.938C154.325 240.984 154.12 241.026 153.914 241.063C150.485 241.693 146.826 241.228 143.494 239.493C143.4 239.444 143.307 239.394 143.214 239.344C143.081 239.272 142.948 239.197 142.817 239.12C142.743 239.078 142.671 239.035 142.598 238.99C142.467 238.912 142.338 238.832 142.21 238.749C139.174 236.803 136.977 233.976 135.782 230.786C135.698 230.562 135.619 230.336 135.545 230.108C135.505 229.984 135.467 229.86 135.429 229.736C135.36 229.505 135.296 229.274 135.237 229.04C134.301 225.319 134.671 221.254 136.582 217.582C137.613 215.602 138.993 213.924 140.609 212.582L140.705 212.504C140.954 212.299 141.211 212.103 141.473 211.914C141.497 211.896 141.523 211.879 141.547 211.861C143.607 210.391 145.98 209.427 148.46 209.034C148.528 209.022 148.595 209.012 148.663 209.003C148.99 208.956 149.32 208.918 149.65 208.89C149.742 208.882 149.834 208.875 149.925 208.869C152.796 208.677 155.754 209.245 158.493 210.671C159.301 211.091 160.06 211.57 160.766 212.1C160.841 212.157 160.915 212.214 160.988 212.271C161.098 212.356 161.207 212.443 161.313 212.53C161.401 212.602 161.489 212.676 161.575 212.75C163.995 214.822 165.701 217.525 166.575 220.479C166.593 220.543 166.611 220.606 166.629 220.668C166.71 220.956 166.784 221.245 166.849 221.537C166.871 221.637 166.893 221.737 166.914 221.838C167.565 225.028 167.267 228.432 165.877 231.599C165.781 231.818 165.679 232.036 165.573 232.252C165.517 232.361 165.461 232.471 165.404 232.581Z" fill="url(#paint17_linear_976_469)"/>
<path opacity="0.5" d="M166.847 221.536C166.782 221.244 166.708 220.955 166.627 220.667C165.347 219.815 163.061 218.561 160.309 217.918C160.281 217.911 160.254 217.905 160.226 217.899C159.134 217.649 158.119 217.532 157.17 217.5C157.03 217.496 156.891 217.493 156.754 217.492C156.355 216.599 155.908 215.747 155.42 214.942C156.629 214.826 159.008 214.229 161.311 212.53C161.204 212.443 161.097 212.356 160.987 212.271C160.913 212.214 160.839 212.157 160.764 212.1C158.658 213.604 156.536 214.09 155.359 214.231C155.224 214.247 155.101 214.259 154.993 214.267C153.848 212.533 152.502 211.051 151.016 209.914C150.891 209.819 150.775 209.729 150.664 209.645C150.268 209.34 149.948 209.094 149.65 208.891C149.319 208.919 148.99 208.957 148.662 209.004C148.594 209.014 148.527 209.024 148.459 209.035C149.007 209.263 149.45 209.604 150.231 210.206C150.342 210.292 150.459 210.382 150.584 210.477C151.914 211.494 153.109 212.795 154.139 214.291C153.233 214.263 152.206 214.069 150.657 213.738C150.598 213.726 150.54 213.713 150.479 213.7C150.352 213.672 150.221 213.644 150.087 213.615C150.053 213.607 150.017 213.599 149.983 213.592C149.949 213.585 149.915 213.577 149.881 213.57C149.799 213.553 149.715 213.534 149.63 213.516C148.516 213.273 147.689 213.049 146.96 212.853C146.423 212.709 145.922 212.572 145.376 212.449L145.372 212.448C144.807 212.318 144.192 212.2 143.44 212.094C142.7 211.991 142.078 211.914 141.544 211.861C141.52 211.879 141.495 211.896 141.47 211.914C141.209 212.103 140.953 212.299 140.702 212.504C141.375 212.544 142.232 212.64 143.34 212.796C144.075 212.9 144.677 213.015 145.232 213.143C145.235 213.144 145.238 213.144 145.241 213.145C145.768 213.265 146.255 213.397 146.775 213.537C147.513 213.736 148.348 213.963 149.479 214.208C149.557 214.224 149.633 214.242 149.709 214.258C149.742 214.265 149.775 214.272 149.808 214.279C149.85 214.288 149.893 214.298 149.936 214.307C150.007 214.323 150.076 214.338 150.145 214.352C150.21 214.367 150.274 214.38 150.338 214.394C150.464 214.421 150.587 214.448 150.708 214.473C152.453 214.843 153.546 215.034 154.606 214.999C154.627 215.032 154.649 215.067 154.669 215.101C155.143 215.863 155.576 216.667 155.964 217.504C154.484 217.562 153.159 217.802 151.921 218.027C150.024 218.371 146.239 219.324 142.205 221.843C140.351 223 138.25 224.312 136.493 226.854C136.015 227.544 135.596 228.276 135.237 229.04C135.296 229.274 135.359 229.505 135.429 229.736C135.466 229.86 135.505 229.984 135.545 230.108C135.951 229.098 136.464 228.142 137.077 227.257C138.752 224.835 140.698 223.619 142.581 222.443C146.515 219.988 150.201 219.059 152.048 218.724C153.336 218.49 154.722 218.239 156.276 218.204C156.292 218.242 156.308 218.28 156.324 218.318C156.845 219.561 157.268 220.864 157.584 222.195C157.188 222.196 156.734 222.237 156.219 222.341C153.597 222.868 152.025 223.974 149.748 226.892C147.546 229.714 144.504 234.003 142.211 238.748C142.339 238.83 142.468 238.911 142.599 238.99C142.672 239.034 142.744 239.077 142.818 239.119C145.087 234.405 148.117 230.134 150.307 227.328C152.488 224.533 153.903 223.53 156.36 223.034C156.899 222.926 157.356 222.892 157.742 222.903C157.75 222.938 157.757 222.974 157.764 223.009C158.282 225.576 158.393 228.225 158.017 230.732C157.273 235.681 155.262 239.186 153.916 241.061C154.123 241.023 154.328 240.981 154.531 240.935C154.665 240.906 154.796 240.874 154.928 240.842C156.282 238.8 158.03 235.418 158.718 230.836C159.091 228.354 159.005 225.657 158.486 222.987C158.663 223.024 158.816 223.069 158.948 223.116C159.124 223.177 159.263 223.241 159.372 223.291C159.444 223.324 159.506 223.353 159.563 223.374C162.004 224.255 163.129 226.188 163.5 226.824C165.179 229.707 164.919 232.067 164.549 234.038C164.678 233.842 164.804 233.642 164.926 233.438C165.095 233.158 165.254 232.871 165.408 232.578C165.465 232.468 165.52 232.358 165.574 232.248C165.632 230.854 165.41 228.697 164.111 226.468C163.032 224.616 161.583 223.35 159.803 222.708C159.775 222.699 159.723 222.674 159.668 222.649C159.5 222.571 159.248 222.455 158.898 222.359C158.861 222.349 158.823 222.339 158.784 222.329C158.647 222.295 158.495 222.266 158.33 222.242C158.112 221.269 157.834 220.304 157.502 219.356C157.365 218.965 157.219 218.582 157.064 218.204C158.002 218.23 158.999 218.341 160.072 218.587C160.089 218.59 160.108 218.595 160.125 218.598C160.126 218.599 160.128 218.599 160.13 218.599C163.107 219.293 165.777 221.004 166.916 221.834L166.847 221.536Z" fill="url(#paint18_linear_976_469)"/>
<path d="M165.404 232.581C165.251 232.875 165.091 233.162 164.923 233.441C165.157 232.023 165.327 229.286 163.952 226.927C163.582 226.291 162.456 224.358 160.016 223.477C159.959 223.456 159.897 223.428 159.824 223.394C159.633 223.306 159.349 223.175 158.939 223.089C158.941 223.099 158.943 223.109 158.944 223.119C159.458 225.779 159.543 228.466 159.171 230.938C158.512 235.321 156.884 238.607 155.558 240.672C155.348 240.734 155.137 240.791 154.925 240.844C154.793 240.878 154.661 240.909 154.528 240.938C155.869 239.015 157.755 235.592 158.47 230.834C158.851 228.293 158.732 225.606 158.195 223.005C158.059 223.001 157.915 223.003 157.759 223.011C157.476 223.027 157.162 223.065 156.813 223.136C154.356 223.631 152.942 224.634 150.76 227.43C148.55 230.26 145.486 234.582 143.211 239.345C143.078 239.273 142.945 239.198 142.815 239.121C142.741 239.079 142.669 239.036 142.596 238.991C144.896 234.191 147.977 229.843 150.201 226.994C152.478 224.076 154.05 222.97 156.672 222.442C157.187 222.339 157.64 222.298 158.036 222.297C157.712 220.925 157.271 219.583 156.729 218.306C156.591 218.31 156.455 218.313 156.32 218.32C154.93 218.385 153.675 218.612 152.501 218.825C150.653 219.159 146.967 220.088 143.034 222.544C141.151 223.719 139.204 224.936 137.53 227.358C136.801 228.411 136.213 229.561 135.78 230.788C135.695 230.564 135.616 230.338 135.542 230.11C135.502 229.986 135.464 229.862 135.426 229.738C135.837 228.755 136.347 227.824 136.947 226.954C138.705 224.413 140.806 223.101 142.66 221.944C146.694 219.425 150.478 218.472 152.375 218.128C153.613 217.903 154.939 217.663 156.419 217.605C156.014 216.731 155.559 215.892 155.061 215.1C154.931 215.104 154.799 215.105 154.668 215.103C153.632 215.084 152.494 214.861 150.706 214.475C150.586 214.45 150.463 214.423 150.336 214.396C150.273 214.382 150.209 214.369 150.143 214.354C150.074 214.34 150.005 214.324 149.935 214.309C149.891 214.3 149.848 214.29 149.806 214.281C149.773 214.274 149.741 214.266 149.707 214.259C148.69 214.033 147.917 213.825 147.23 213.638C146.563 213.458 145.953 213.294 145.24 213.147C145.237 213.146 145.234 213.146 145.231 213.145C144.801 213.056 144.335 212.973 143.796 212.898C142.563 212.725 141.385 212.619 140.606 212.585L140.701 212.507C140.951 212.302 141.208 212.105 141.469 211.917C142.113 211.966 142.897 212.057 143.895 212.196C144.449 212.275 144.93 212.36 145.37 212.45L145.375 212.451C146.107 212.601 146.732 212.771 147.414 212.955C148.098 213.14 148.868 213.347 149.879 213.572C149.912 213.58 149.946 213.588 149.981 213.595C150.015 213.603 150.05 213.61 150.084 213.617C150.219 213.646 150.349 213.675 150.476 213.702C150.537 213.716 150.595 213.727 150.654 213.741C152.462 214.132 153.601 214.362 154.593 214.393C153.563 212.897 152.367 211.596 151.037 210.579C150.913 210.483 150.796 210.393 150.685 210.308C149.898 209.702 149.261 209.26 148.659 209.006C148.986 208.958 149.315 208.92 149.646 208.893C149.737 208.884 149.829 208.878 149.92 208.872C150.272 209.095 150.641 209.379 151.117 209.746C151.228 209.831 151.344 209.92 151.468 210.016C152.915 211.123 154.23 212.558 155.356 214.233C155.385 214.277 155.415 214.323 155.446 214.369C156.532 214.288 158.586 214.066 160.984 212.274C161.094 212.359 161.202 212.445 161.309 212.533C161.397 212.605 161.484 212.679 161.57 212.753C159.297 214.409 157.071 214.929 155.873 215.044C156.345 215.821 156.778 216.644 157.167 217.503C157.181 217.534 157.194 217.563 157.209 217.594C158.171 217.602 159.198 217.694 160.307 217.921C160.43 217.946 160.555 217.973 160.68 218.001C163.355 218.613 165.346 219.676 166.57 220.482C166.589 220.545 166.607 220.608 166.624 220.671C166.705 220.958 166.779 221.248 166.844 221.54C165.816 220.771 163.661 219.409 160.521 218.692C160.387 218.662 160.255 218.634 160.123 218.606C160.121 218.606 160.119 218.606 160.117 218.605C159.197 218.42 158.332 218.332 157.513 218.31C157.668 218.688 157.815 219.071 157.952 219.461C158.282 220.405 158.558 221.367 158.777 222.335C158.778 222.339 158.778 222.344 158.779 222.348C158.817 222.353 158.855 222.359 158.891 222.366C159.486 222.463 159.884 222.646 160.117 222.754C160.172 222.78 160.224 222.803 160.252 222.814C162.032 223.456 163.482 224.722 164.56 226.573C165.814 228.726 165.971 230.454 165.87 231.602L165.566 232.255C165.517 232.361 165.461 232.471 165.404 232.581Z" fill="#3497DA"/>
<path d="M33.1415 409.877C33.1406 409.794 33.146 409.71 33.1667 409.625C34.4264 404.63 39.5778 402.07 39.5778 402.07L42.0557 402.264C43.4804 406.666 44.3992 408.815 44.1702 410.018C44.1639 410.051 44.1531 410.084 44.1449 410.116C42.1008 410.298 37.8935 410.417 33.1415 409.877Z" fill="#09005D"/>
<path d="M44.144 410.116C44.034 410.518 43.7374 410.83 43.3578 410.91C40.4507 411.521 35.8295 411.029 33.889 410.775C33.4607 410.72 33.1478 410.324 33.1415 409.876C37.8934 410.418 42.1008 410.298 44.144 410.116Z" fill="url(#paint19_linear_976_469)"/>
<path d="M37.5382 398.214L38.623 403.436C38.7023 403.819 38.9963 404.105 39.3524 404.138C39.788 404.179 40.4092 404.203 41.0332 404.111C41.5932 404.029 41.9827 403.46 41.8835 402.85L41.1297 398.213H37.5382V398.214Z" fill="url(#paint20_linear_976_469)"/>
<path d="M65.1961 410.073C62.5496 409.999 61.1808 409.687 60.4739 409.399C60.4721 409.662 60.4739 409.93 60.482 410.206C60.491 410.503 60.7111 410.739 60.9807 410.738L75.5098 410.644C75.9733 410.641 76.2447 410.103 76.0436 409.678C74.1392 409.835 69.2871 410.188 65.1961 410.073Z" fill="url(#paint21_linear_976_469)"/>
<path d="M76.0436 409.677C76.0264 409.64 76.0111 409.602 75.9858 409.568C74.7027 407.776 71.435 404.205 64.977 402.657L61.8787 402.559C61.8787 402.559 60.4991 404.957 60.473 409.398C61.1808 409.687 62.5496 409.998 65.1952 410.072C69.2871 410.188 74.1392 409.835 76.0436 409.677Z" fill="url(#paint22_linear_976_469)"/>
<path d="M61.3052 397.864C61.3395 398.095 61.7642 401.604 61.9283 402.965C61.9671 403.289 62.2015 403.538 62.4973 403.574C63.0248 403.637 63.8787 403.693 64.6253 403.541C65.0284 403.458 65.3196 403.071 65.3196 402.621V397.112L61.3052 397.864Z" fill="url(#paint23_linear_976_469)"/>
<path d="M39.6076 329.639C39.6076 329.639 34.65 373.703 37.4047 401.244C37.4047 401.244 40.7095 401.244 42.3623 400.693C42.3623 400.693 47.5137 357.608 49.1801 345.28C49.2432 344.816 49.9068 344.794 49.9979 345.254C52.0538 355.626 60.1294 396.3 61.0897 400.142C61.0897 400.142 63.8435 401.244 66.0473 400.142C66.0473 400.142 61.6407 341.206 58.3359 330.74L39.6076 329.639Z" fill="url(#paint24_linear_976_469)"/>
<path d="M29.6934 278.414C29.6934 278.414 50.6246 275.109 67.1483 279.516L66.0464 296.59C66.0464 296.59 61.6398 320.275 58.335 330.74C58.335 330.74 45.6661 332.943 39.6076 329.639C39.6076 329.639 34.65 299.895 31.8962 295.488C31.8962 295.488 29.1424 283.921 29.6934 278.414Z" fill="url(#paint25_linear_976_469)"/>
<path d="M44.2333 263.363L42.1486 277.463C42.1486 277.463 47.9736 280.14 52.0529 277.349L51.1746 267.398L44.2333 263.363Z" fill="url(#paint26_linear_976_469)"/>
<path d="M53.2116 254.18C53.2774 254.3 54.5344 261.41 55.308 265.812C55.6272 267.63 54.2909 269.319 52.4478 269.428L50.7599 269.528C47.6589 269.712 44.9276 267.504 44.4579 264.433L43.2379 256.46C43.2361 256.461 51.6165 251.289 53.2116 254.18Z" fill="url(#paint27_linear_976_469)"/>
<path d="M41.4164 256.48C40.769 255.676 40.2054 254.373 41.5832 253.006C42.9781 251.621 44.5606 251.966 45.5651 252.43C46.0097 252.636 46.557 252.545 46.8735 252.171C47.0142 252.005 47.2225 251.891 47.5317 251.926C48.1151 251.992 48.6363 251.606 48.7058 251.023C48.8248 250.023 49.3568 248.845 51.125 248.504C54.3675 247.878 55.9852 251.123 55.9275 253.403C55.8698 255.684 52.3153 256.163 50.2991 255.785C48.8176 255.506 47.5372 256.808 46.9619 257.519C46.7527 257.776 46.6751 258.115 46.75 258.437L47.263 260.641C46.9078 261.326 46.5597 262.025 46.0611 262.61C45.7022 263.031 45.3081 263.262 44.8907 263.361C44.2856 262.235 42.5949 262.044 41.8095 262.019C41.5093 262.009 41.2279 261.877 41.0305 261.65C40.438 260.97 39.5093 259.454 41.2856 257.964C41.7275 257.596 41.778 256.93 41.4164 256.48Z" fill="url(#paint28_linear_976_469)"/>
<path d="M45.475 265.721C45.475 265.721 45.4046 261.743 43.7951 261.369C42.1847 260.995 40.4471 262.16 41.8249 264.541C43.5381 267.505 45.475 265.721 45.475 265.721Z" fill="url(#paint29_linear_976_469)"/>
<path d="M33.2551 278.256C28.4851 277.822 24.9793 276.548 22.4203 274.793C21.258 278.748 19.8594 282.81 17.8279 286.37C26.7719 294.072 39.1144 297.432 39.1144 297.432C39.3254 293.912 33.2551 278.256 33.2551 278.256Z" fill="url(#paint30_linear_976_469)"/>
<path d="M16.8928 253.702L15.304 251.452C3.81725 267.646 9.26533 278.997 17.8279 286.371C19.8594 282.81 21.258 278.749 22.4203 274.794C12.4042 267.927 16.8928 253.702 16.8928 253.702Z" fill="url(#paint31_linear_976_469)"/>
<path d="M15.1444 251.622C15.1444 251.622 14.6115 245.23 17.8081 244.697C21.0037 244.164 22.0695 247.361 22.6024 248.959C23.1353 250.557 17.8081 253.753 16.7432 253.753C15.6782 253.753 15.1444 251.622 15.1444 251.622Z" fill="url(#paint32_linear_976_469)"/>
<path d="M62.0357 279.854C62.0357 279.854 55.9654 295.51 56.1764 299.03C56.1764 299.03 70.1816 295.217 79.1653 286.406C76.5702 283.487 74.4818 279.967 72.7289 276.484C70.1816 278.191 66.7191 279.428 62.0357 279.854Z" fill="url(#paint33_linear_976_469)"/>
<path d="M79.9867 253.05L78.3979 255.3C78.3979 255.3 82.9254 269.656 72.728 276.485C74.4809 279.967 76.5693 283.488 79.1644 286.406C86.69 279.026 90.6908 268.14 79.9867 253.05Z" fill="url(#paint34_linear_976_469)"/>
<path d="M80.1472 253.22C80.1472 253.22 80.6802 246.828 77.4836 246.295C74.2871 245.762 73.2222 248.959 72.6893 250.557C72.1564 252.154 77.4836 255.351 78.5485 255.351C79.6134 255.351 80.1472 253.22 80.1472 253.22Z" fill="url(#paint35_linear_976_469)"/>
<path d="M95.249 190.489C95.2427 187.592 92.0737 185.577 88.4736 185.241C84.2398 184.842 81.2292 186.731 81.1278 190.064C78.3581 188.93 75.4362 189.659 75.6581 192.701C74.9355 191.871 72.2418 191.896 71.2721 192.124C70.2517 192.371 69.2122 193.29 68.8573 194.184C68.5721 194.907 68.5531 195.236 68.6038 195.743C66.9876 195.217 63.3178 194.888 62.3988 196.371C60.7636 199.007 67.2981 199.09 68.6165 198.291C68.8953 200.345 75.9179 200.681 77.6165 198.786C78.9475 200.123 80.8489 200.421 82.9088 200.541C86.3821 200.75 88.5117 199.571 91.2244 198.19C94.1716 200.687 99.2674 200.731 101.923 197.873C102.601 198.513 104.465 198.709 105.96 198.355C106.943 198.12 107.171 197.702 107.171 197.702C107.697 197.943 108.325 198.107 108.971 198.24C110.898 198.646 114.479 198.215 112.977 196.485C112.463 195.895 110.587 195.521 109.795 195.705C108.952 194.051 105.58 192.485 103.647 193.886C103.571 191.883 101.739 190.318 99.166 189.919C98.3103 189.792 96.2378 189.678 95.249 190.489Z" fill="#EBEBEB"/>
<path d="M74.4412 167.615C73.5665 167.222 72.5334 167.184 71.7855 167.127C70.9235 167.057 70.651 166.886 70.4862 166.702C68.3946 163.704 64.934 163.59 62.8678 164.452C62.3608 162.392 59.8699 160.599 57.1192 161.207C57.2143 158.526 53.7917 155.649 50.7178 154.996C47.7705 154.368 45.2036 154.635 43.5177 156.568C41.7177 153.05 34.6634 152.061 30.8415 153.925C28.6486 154.996 26.7852 156.092 25.8725 158.101C25.2704 159.432 25.0549 160.313 25.0485 162.101C23.5591 160.789 20.5802 160.434 18.5964 161.201C16.4541 162.031 16.2893 163.647 16.1879 165.289C14.09 164.756 12.683 165.105 12.29 165.219C10.94 165.618 10.1604 166.677 10.3442 167.532C9.27942 167.475 6.73152 168.337 7.02307 169.466C7.35265 170.733 10.2555 170.606 11.3456 170.562C12.2456 170.53 13.4055 170.29 14.3816 170.087C14.6795 170.233 15.4654 170.391 15.9598 170.385C17.8105 170.372 18.5964 169.58 18.8879 168.889C19.788 170.79 23.0077 172.242 25.2767 172.818C29.5549 173.915 35.6078 173.243 38.2444 170.049C38.5233 170.625 38.986 171.158 39.5184 171.602C40.5642 172.464 41.9775 173.066 43.4797 173.205C45.2353 173.37 49.9508 173.592 51.2818 170.803C52.2199 172.66 56.422 173.509 59.6101 173.053C60.8016 172.882 62.1453 172.47 63.1847 171.975C64.0214 171.576 64.4967 171.19 65.2383 170.746C65.8657 170.366 66.1509 170.372 66.9876 170.625C69.1805 171.285 71.7221 171.557 73.9595 170.619C75.7405 169.865 76.1144 168.369 74.4412 167.615Z" fill="#EBEBEB"/>
<path d="M127.123 178.516C134.051 178.516 139.666 172.926 139.666 166.03C139.666 159.134 134.051 153.544 127.123 153.544C120.196 153.544 114.58 159.134 114.58 166.03C114.58 172.926 120.196 178.516 127.123 178.516Z" fill="#FFBDA7"/>
<defs>
<linearGradient id="paint0_linear_976_469" x1="321.204" y1="238.835" x2="260.559" y2="296.764" gradientUnits="userSpaceOnUse">
<stop stop-color="#3498DB"/>
<stop offset="1" stop-color="#34495E"/>
</linearGradient>
<linearGradient id="paint1_linear_976_469" x1="170.85" y1="246.119" x2="212.587" y2="246.119" gradientUnits="userSpaceOnUse">
<stop stop-color="#FF928E"/>
<stop offset="1" stop-color="#FE7062"/>
</linearGradient>
<linearGradient id="paint2_linear_976_469" x1="171.225" y1="263.677" x2="212.171" y2="263.677" gradientUnits="userSpaceOnUse">
<stop stop-color="#FEBBBA"/>
<stop offset="1" stop-color="#FF928E"/>
</linearGradient>
<linearGradient id="paint3_linear_976_469" x1="191.595" y1="227.135" x2="191.595" y2="239.504" gradientUnits="userSpaceOnUse">
<stop stop-color="#FF928E"/>
<stop offset="1" stop-color="#FE7062"/>
</linearGradient>
<linearGradient id="paint4_linear_976_469" x1="127.591" y1="266.283" x2="117.146" y2="304.391" gradientUnits="userSpaceOnUse">
<stop stop-color="#09005D"/>
<stop offset="1" stop-color="#1A0F91"/>
</linearGradient>
<linearGradient id="paint5_linear_976_469" x1="163.727" y1="331.301" x2="125.244" y2="345.66" gradientUnits="userSpaceOnUse">
<stop stop-color="#FEBBBA"/>
<stop offset="1" stop-color="#FF928E"/>
</linearGradient>
<linearGradient id="paint6_linear_976_469" x1="131.032" y1="290.056" x2="157.791" y2="277.471" gradientUnits="userSpaceOnUse">
<stop stop-color="#FEBBBA"/>
<stop offset="1" stop-color="#FF928E"/>
</linearGradient>
<linearGradient id="paint7_linear_976_469" x1="123.592" y1="366.826" x2="129.701" y2="366.826" gradientUnits="userSpaceOnUse">
<stop stop-color="#09005D"/>
<stop offset="1" stop-color="#1A0F91"/>
</linearGradient>
<linearGradient id="paint8_linear_976_469" x1="123.825" y1="355.649" x2="129.651" y2="357.489" gradientUnits="userSpaceOnUse">
<stop stop-color="#09005D"/>
<stop offset="1" stop-color="#1A0F91"/>
</linearGradient>
<linearGradient id="paint9_linear_976_469" x1="141.21" y1="336.189" x2="105.217" y2="361.652" gradientUnits="userSpaceOnUse">
<stop stop-color="#FEBBBA"/>
<stop offset="1" stop-color="#FF928E"/>
</linearGradient>
<linearGradient id="paint10_linear_976_469" x1="185.786" y1="302.653" x2="162.557" y2="317.738" gradientUnits="userSpaceOnUse">
<stop stop-color="#4F52FF"/>
<stop offset="1" stop-color="#4042E2"/>
</linearGradient>
<linearGradient id="paint11_linear_976_469" x1="148.739" y1="307.036" x2="111.33" y2="362.546" gradientUnits="userSpaceOnUse">
<stop stop-color="#4F52FF"/>
<stop offset="1" stop-color="#4042E2"/>
</linearGradient>
<linearGradient id="paint12_linear_976_469" x1="164.894" y1="267.059" x2="150.714" y2="285.462" gradientUnits="userSpaceOnUse">
<stop stop-color="#FF928E"/>
<stop offset="1" stop-color="#FE7062"/>
</linearGradient>
<linearGradient id="paint13_linear_976_469" x1="133.081" y1="307.629" x2="131.163" y2="292.637" gradientUnits="userSpaceOnUse">
<stop stop-color="#FEBBBA"/>
<stop offset="1" stop-color="#FF928E"/>
</linearGradient>
<linearGradient id="paint14_linear_976_469" x1="132.076" y1="280.301" x2="132.076" y2="264.211" gradientUnits="userSpaceOnUse">
<stop stop-color="#FEBBBA"/>
<stop offset="1" stop-color="#FF928E"/>
</linearGradient>
<linearGradient id="paint15_linear_976_469" x1="138.723" y1="288.31" x2="124.893" y2="282.856" gradientUnits="userSpaceOnUse">
<stop stop-color="#3498DB"/>
<stop offset="1" stop-color="#1A0F91"/>
</linearGradient>
<linearGradient id="paint16_linear_976_469" x1="120.774" y1="308.623" x2="138.372" y2="276.343" gradientUnits="userSpaceOnUse">
<stop stop-color="#FEBBBA"/>
<stop offset="1" stop-color="#FF928E"/>
</linearGradient>
<linearGradient id="paint17_linear_976_469" x1="136.564" y1="217.488" x2="173.332" y2="236.838" gradientUnits="userSpaceOnUse">
<stop stop-color="#E1473D"/>
<stop offset="1" stop-color="#E9605A"/>
</linearGradient>
<linearGradient id="paint18_linear_976_469" x1="167.184" y1="234.64" x2="124.363" y2="209.521" gradientUnits="userSpaceOnUse">
<stop stop-color="#2A3780"/>
<stop offset="1" stop-color="#171042"/>
</linearGradient>
<linearGradient id="paint19_linear_976_469" x1="39.2412" y1="418.621" x2="41.2524" y2="447.581" gradientUnits="userSpaceOnUse">
<stop stop-color="#09005D"/>
<stop offset="1" stop-color="#1A0F91"/>
</linearGradient>
<linearGradient id="paint20_linear_976_469" x1="40.5746" y1="393.188" x2="38.3659" y2="412.464" gradientUnits="userSpaceOnUse">
<stop stop-color="#FEBBBA"/>
<stop offset="1" stop-color="#FF928E"/>
</linearGradient>
<linearGradient id="paint21_linear_976_469" x1="67.5687" y1="420.125" x2="65.5574" y2="449.087" gradientUnits="userSpaceOnUse">
<stop stop-color="#09005D"/>
<stop offset="1" stop-color="#1A0F91"/>
</linearGradient>
<linearGradient id="paint22_linear_976_469" x1="67.9039" y1="403.916" x2="68.8089" y2="418.246" gradientUnits="userSpaceOnUse">
<stop stop-color="#09005D"/>
<stop offset="1" stop-color="#1A0F91"/>
</linearGradient>
<linearGradient id="paint23_linear_976_469" x1="63.8414" y1="395.654" x2="61.7753" y2="413.685" gradientUnits="userSpaceOnUse">
<stop stop-color="#FEBBBA"/>
<stop offset="1" stop-color="#FF928E"/>
</linearGradient>
<linearGradient id="paint24_linear_976_469" x1="136.847" y1="272.164" x2="-33.6512" y2="460.33" gradientUnits="userSpaceOnUse">
<stop stop-color="#09005D"/>
<stop offset="1" stop-color="#1A0F91"/>
</linearGradient>
<linearGradient id="paint25_linear_976_469" x1="166.381" y1="194.052" x2="128.972" y2="227.841" gradientUnits="userSpaceOnUse">
<stop stop-color="#4F52FF"/>
<stop offset="1" stop-color="#4042E2"/>
</linearGradient>
<linearGradient id="paint26_linear_976_469" x1="42.1486" y1="270.991" x2="52.0531" y2="270.991" gradientUnits="userSpaceOnUse">
<stop stop-color="#FEBBBA"/>
<stop offset="1" stop-color="#FF928E"/>
</linearGradient>
<linearGradient id="paint27_linear_976_469" x1="872.728" y1="-493.733" x2="885.884" y2="-505.808" gradientUnits="userSpaceOnUse">
<stop stop-color="#FEBBBA"/>
<stop offset="1" stop-color="#FF928E"/>
</linearGradient>
<linearGradient id="paint28_linear_976_469" x1="39.9843" y1="259.936" x2="55.6344" y2="251.308" gradientUnits="userSpaceOnUse">
<stop stop-color="#09005D"/>
<stop offset="1" stop-color="#1A0F91"/>
</linearGradient>
<linearGradient id="paint29_linear_976_469" x1="870.983" y1="-495.642" x2="884.138" y2="-507.718" gradientUnits="userSpaceOnUse">
<stop stop-color="#FEBBBA"/>
<stop offset="1" stop-color="#FF928E"/>
</linearGradient>
<linearGradient id="paint30_linear_976_469" x1="151.245" y1="177.295" x2="113.836" y2="211.083" gradientUnits="userSpaceOnUse">
<stop stop-color="#4F52FF"/>
<stop offset="1" stop-color="#4042E2"/>
</linearGradient>
<linearGradient id="paint31_linear_976_469" x1="37.2841" y1="252.18" x2="-65.9147" y2="335.518" gradientUnits="userSpaceOnUse">
<stop stop-color="#FEBBBA"/>
<stop offset="1" stop-color="#FF928E"/>
</linearGradient>
<linearGradient id="paint32_linear_976_469" x1="21.127" y1="241.57" x2="15.5339" y2="259.947" gradientUnits="userSpaceOnUse">
<stop stop-color="#FEBBBA"/>
<stop offset="1" stop-color="#FF928E"/>
</linearGradient>
<linearGradient id="paint33_linear_976_469" x1="167.667" y1="195.476" x2="130.258" y2="229.265" gradientUnits="userSpaceOnUse">
<stop stop-color="#4F52FF"/>
<stop offset="1" stop-color="#4042E2"/>
</linearGradient>
<linearGradient id="paint34_linear_976_469" x1="76.3793" y1="272.31" x2="29.2965" y2="310.331" gradientUnits="userSpaceOnUse">
<stop stop-color="#FEBBBA"/>
<stop offset="1" stop-color="#FF928E"/>
</linearGradient>
<linearGradient id="paint35_linear_976_469" x1="74.1639" y1="243.168" x2="79.757" y2="261.545" gradientUnits="userSpaceOnUse">
<stop stop-color="#FEBBBA"/>
<stop offset="1" stop-color="#FF928E"/>
</linearGradient>
</defs>
</svg>
