<svg width="250" height="426" viewBox="0 0 250 426" fill="none" xmlns="http://www.w3.org/2000/svg">
<path d="M0 -1H250V254C250 323.036 194.036 379 125 379C55.9644 379 0 323.036 0 254V-1Z" fill="#34495E"/>
<path d="M53.2612 191.829C72.0428 212.112 151.634 306.528 89.396 389.085C88.185 390.691 85.4754 390.582 84.4015 388.881C72.9823 370.79 24.7864 286.885 48.1486 192.886C48.6724 190.779 51.7058 190.149 53.2612 191.829Z" fill="#5EB4EE"/>
<path opacity="0.5" d="M60.7949 221.249C60.6065 220.829 61.2872 220.56 61.5154 220.964C71.9751 239.495 100.157 298.566 87.3212 378.352C87.3203 378.353 95.6538 298.88 60.7949 221.249Z" fill="white"/>
<path d="M74.7523 397.438C74.7523 397.438 112.337 309.323 17.5484 207.593C15.5349 205.432 11.6431 206.043 10.6693 208.684C1.49356 233.568 -26.6161 332.224 74.7523 397.438Z" fill="#3498DB"/>
<path opacity="0.5" d="M71.9499 387.867C68.5973 372.223 55.0799 312.331 34.1631 260.612C33.9693 260.133 33.1595 260.34 33.2957 260.834C39.9863 285.205 62.7345 367.34 71.0788 388.069C71.2673 388.536 72.0545 388.355 71.9499 387.867Z" fill="white"/>
<path d="M250 402.449C249.95 412.057 206.677 423.752 169.02 425.649C94.3211 429.411 63.124 400.2 33.1523 416.851C29.0811 419.112 15.5114 426.115 4.8966 419.294C1.774 417.287 -0.347701 409.552 0.0472445 404.324C0.528753 397.943 8.12108 399.003 13.9154 396.127C22.9424 391.646 35.3245 385.816 50.74 379.481C100.117 379.067 159.558 378.652 208.935 378.238C229.248 382.819 234.091 391.134 243.642 397.625C248.664 401.039 250.009 400.755 250 402.449Z" fill="#34495E"/>
<path d="M247.82 401.447L0.977809 401.614C0.174393 401.614 37.3308 369.61 37.3308 369.61C37.4832 369.481 38.0576 369.377 38.6158 369.377L211.047 369.371C211.604 369.371 212.174 369.472 212.321 369.601L223.86 379.547L229.375 384.306L248.716 400.982C249.014 401.236 248.613 401.447 247.82 401.447Z" fill="url(#paint0_linear_655_383)"/>
<path d="M10.9732 398.338C10.846 398.338 10.7324 398.259 10.6891 398.139C10.6459 398.019 10.6819 397.885 10.7793 397.804L42.1144 371.689C42.1685 371.644 42.237 371.619 42.3073 371.619L209.078 371.607C209.149 371.607 209.219 371.632 209.273 371.678L239.961 397.673C240.058 397.756 240.093 397.889 240.05 398.007C240.006 398.126 239.893 398.205 239.767 398.205L10.9732 398.338ZM42.4173 372.223L11.8063 397.735L238.945 397.604L208.968 372.212L42.4173 372.223Z" fill="white"/>
<path d="M125.624 398.094C125.623 398.094 125.622 398.094 125.621 398.094C125.454 398.092 125.321 397.957 125.322 397.79L125.526 371.939C125.527 371.773 125.662 371.639 125.828 371.639C125.829 371.639 125.83 371.639 125.831 371.639C125.998 371.641 126.131 371.777 126.13 371.943L125.926 397.794C125.924 397.96 125.79 398.094 125.624 398.094Z" fill="white"/>
<path d="M125.555 386.401C119.572 386.401 114.517 385.368 113.257 383.886C112.987 383.57 112.879 383.235 112.935 382.89C113.27 380.818 119.727 379.699 125.632 379.698C125.635 379.698 125.639 379.698 125.642 379.698C131.543 379.698 137.971 380.816 138.266 382.889C138.315 383.233 138.202 383.565 137.93 383.88C136.644 385.363 131.563 386.399 125.573 386.401C125.567 386.401 125.561 386.401 125.555 386.401ZM125.644 380.3C125.639 380.3 125.636 380.3 125.632 380.3C118.654 380.302 113.741 381.69 113.531 382.986C113.504 383.151 113.565 383.317 113.717 383.494C114.691 384.638 119.07 385.796 125.554 385.796C125.561 385.796 125.567 385.796 125.573 385.796C132.072 385.794 136.479 384.63 137.474 383.482C137.629 383.304 137.693 383.137 137.67 382.972C137.485 381.683 132.608 380.3 125.644 380.3ZM113.233 382.938H113.235H113.233Z" fill="white"/>
<path d="M66.7426 386.402C60.9536 386.402 56.7869 385.469 56.1232 384.023C55.988 383.729 55.923 383.268 56.3775 382.739C57.8464 381.033 64.3044 379.694 71.0806 379.693C71.0843 379.693 71.0888 379.693 71.0924 379.693C76.6946 379.693 80.8371 380.584 81.6504 381.965C81.8596 382.32 81.8614 382.704 81.6549 383.077C80.6207 384.94 74.0788 386.4 66.7597 386.403C66.7552 386.402 66.7489 386.402 66.7426 386.402ZM56.8356 383.133C56.5687 383.444 56.6146 383.647 56.6724 383.773C57.1349 384.781 60.7417 385.8 66.7426 385.8C66.7489 385.8 66.7543 385.8 66.7606 385.8C74.3547 385.797 80.3204 384.238 81.1283 382.784C81.2302 382.599 81.2311 382.441 81.1319 382.271C80.5539 381.29 76.9201 380.298 71.0933 380.298C71.0897 380.298 71.0861 380.298 71.0816 380.298C64.5713 380.299 58.18 381.571 56.8356 383.133Z" fill="white"/>
<path d="M22.3265 388.875C22.1678 388.875 22.0344 388.751 22.0254 388.591C22.0163 388.424 22.1435 388.282 22.3094 388.272L66.5974 385.808L70.518 380.268L34.9152 378.37C34.7493 378.361 34.6212 378.219 34.6302 378.052C34.6393 377.886 34.7817 377.761 34.9476 377.767L71.0969 379.694C71.2069 379.701 71.3043 379.766 71.3521 379.864C71.3999 379.963 71.3899 380.08 71.3268 380.17L67.0059 386.275C66.9527 386.35 66.8679 386.397 66.7768 386.402L22.3437 388.875C22.3382 388.875 22.3328 388.875 22.3265 388.875Z" fill="white"/>
<path d="M17.4041 395.264C16.1066 395.264 15.0885 395.262 14.6638 395.259C14.497 395.257 14.3636 395.121 14.3645 394.954C14.3654 394.787 14.5006 394.657 14.6684 394.655C15.9271 394.666 22.4131 394.656 25.8981 394.651L28.1758 394.648C54.0439 394.635 79.6702 389.099 83.0174 382.802C83.4529 381.981 83.4448 381.216 82.9903 380.46C80.6675 376.595 67.6551 374 50.6102 374C50.6039 374 50.5994 374 50.594 374L40.173 374.001C40.0062 374.001 39.8709 373.866 39.8709 373.699C39.8709 373.532 40.0062 373.397 40.173 373.397L50.594 373.396C50.5994 373.396 50.6057 373.396 50.6111 373.396C68.1312 373.396 81.0417 376.046 83.5079 380.149C84.0724 381.088 84.0859 382.076 83.5503 383.084C81.8884 386.211 75.1789 389.222 64.6578 391.563C53.9961 393.934 41.0395 395.244 28.1777 395.251L25.9 395.254C23.5889 395.259 19.9568 395.264 17.4041 395.264Z" fill="white"/>
<path d="M184.05 386.362C176.766 386.362 170.288 384.907 169.297 383.047C169.1 382.678 169.107 382.297 169.319 381.945C170.148 380.563 174.3 379.671 179.897 379.669C179.901 379.669 179.904 379.669 179.909 379.669C186.651 379.669 193.047 381.002 194.472 382.704C194.911 383.228 194.841 383.685 194.705 383.976C194.029 385.424 189.855 386.361 184.069 386.362C184.063 386.362 184.057 386.362 184.05 386.362ZM179.908 380.272C179.904 380.272 179.901 380.272 179.896 380.272C174.072 380.273 170.427 381.27 169.836 382.255C169.734 382.425 169.732 382.581 169.829 382.763C170.584 384.18 176.609 385.759 184.05 385.759C184.057 385.759 184.062 385.759 184.068 385.759C190.068 385.757 193.685 384.732 194.157 383.721C194.214 383.597 194.262 383.396 194.008 383.092C192.706 381.536 186.381 380.272 179.908 380.272Z" fill="white"/>
<path d="M228.66 388.794C228.655 388.794 228.649 388.794 228.643 388.794L184.051 386.361C183.957 386.356 183.872 386.308 183.819 386.231L179.646 380.141C179.585 380.05 179.576 379.934 179.625 379.837C179.673 379.739 179.77 379.675 179.879 379.669L215.866 377.732C216.031 377.721 216.174 377.85 216.183 378.017C216.192 378.183 216.064 378.326 215.898 378.335L180.447 380.243L184.233 385.767L228.676 388.192C228.841 388.201 228.97 388.343 228.961 388.509C228.953 388.67 228.82 388.794 228.66 388.794Z" fill="white"/>
<path d="M230.19 395.155C228.321 395.155 226.357 395.154 224.817 395.153L222.435 395.152C222.402 395.152 222.37 395.152 222.338 395.152C209.587 395.152 196.769 393.858 186.233 391.508C175.804 389.18 169.181 386.179 167.584 383.058C167.072 382.056 167.101 381.075 167.671 380.143C170.143 376.101 183.364 373.384 200.57 373.382L210.927 373.382C211.094 373.382 211.229 373.517 211.229 373.684C211.229 373.85 211.094 373.986 210.927 373.986L200.57 373.987C183.566 373.988 170.552 376.59 168.186 380.459C167.727 381.21 167.705 381.97 168.122 382.784C171.331 389.057 196.655 394.55 222.343 394.55C222.374 394.55 222.403 394.55 222.435 394.55L224.818 394.551C228.585 394.553 234.889 394.555 236.127 394.544C236.128 394.544 236.129 394.544 236.13 394.544C236.295 394.544 236.43 394.676 236.432 394.842C236.434 395.009 236.3 395.145 236.134 395.147C235.399 395.153 232.893 395.155 230.19 395.155Z" fill="white"/>
<path d="M225.041 382.069V200.23C225.041 198.353 223.505 196.819 221.63 196.819C219.754 196.819 218.219 198.353 218.219 200.23V382.07C219.015 382.364 220.339 382.74 221.999 382.677C223.287 382.628 224.331 382.333 225.041 382.069Z" fill="#5EB4EE"/>
<path d="M236.81 239.428L192.188 227.454C191.239 227.199 190.48 225.909 190.48 224.581C189.999 219.526 189.663 213.675 189.682 207.176C189.7 201.116 190.025 195.633 190.48 190.847C190.489 190.588 190.535 189.758 190.978 189.009C191.287 188.489 191.713 188.103 192.188 187.975L236.81 176C237.716 176.021 239.065 176.28 240.107 177.637C241.142 178.982 241.403 180.792 241.503 181.487C242.069 185.401 242.069 206.2 241.503 234.577C241.503 236.847 239.345 240.109 236.81 239.428Z" fill="#3498DB"/>
<path d="M212.577 218.825C212.942 222.149 203.9 225.87 192.38 227.137C180.861 228.404 171.225 226.737 170.86 223.413C170.495 220.09 179.537 216.368 191.057 215.101C202.577 213.835 212.211 215.502 212.577 218.825Z" fill="url(#paint1_linear_655_383)"/>
<path d="M212.171 220.259C211.955 220.528 211.67 220.891 211.338 221.344C211.109 221.656 210.856 222.01 210.59 222.405C209.958 223.341 209.242 224.503 208.542 225.865V225.866C208.318 226.304 208.094 226.763 207.875 227.243C207.732 227.557 207.59 227.88 207.452 228.211L207.451 228.213C206.968 229.373 206.522 230.631 206.153 231.982C205.969 232.655 205.806 233.351 205.666 234.068C205.196 236.474 205 239.12 205.266 241.954C205.271 242.02 205.278 242.084 205.286 242.149V242.15C205.567 244.939 206.245 247.376 207.028 249.404V249.405C207.264 250.018 207.51 250.592 207.759 251.128C208.064 251.79 208.372 252.394 208.668 252.934C208.348 253.085 208.009 253.241 207.65 253.398C207.564 253.436 207.477 253.475 207.387 253.513C207.175 253.605 206.957 253.698 206.732 253.792C206.597 253.847 206.46 253.903 206.32 253.958C205.622 254.239 204.868 254.521 204.06 254.794C203.806 254.88 203.546 254.967 203.281 255.05L203.121 255.101C202.832 255.192 202.536 255.28 202.234 255.369C201.643 255.541 201.028 255.706 200.389 255.862H200.388L200.297 255.884C200.012 255.953 199.722 256.02 199.428 256.085C199.369 256.098 199.308 256.112 199.248 256.125C198.91 256.197 198.566 256.268 198.217 256.334C197.702 256.432 197.174 256.523 196.635 256.604C196.312 256.655 195.984 256.7 195.654 256.742C195.529 256.758 195.404 256.774 195.278 256.79H195.277C194.943 256.83 194.605 256.866 194.262 256.899C193.999 256.925 193.734 256.948 193.466 256.968C193.241 256.985 193.019 257.001 192.797 257.014C192.459 257.036 192.124 257.052 191.793 257.066C191.649 257.07 191.507 257.076 191.365 257.079H191.364C191.027 257.09 190.693 257.095 190.364 257.096C189.856 257.099 189.359 257.094 188.87 257.079C188.523 257.069 188.181 257.055 187.843 257.038C187.73 257.032 187.618 257.025 187.507 257.019C187.172 256.998 186.842 256.976 186.519 256.948C185.945 256.902 185.389 256.843 184.85 256.777C184.491 256.733 184.14 256.685 183.798 256.635C183.766 256.63 183.733 256.625 183.701 256.62C183.369 256.571 183.044 256.518 182.728 256.463C182.018 256.342 181.351 256.208 180.729 256.07C180.46 256.012 180.198 255.951 179.947 255.891L179.648 255.818C179.61 255.809 179.571 255.8 179.533 255.79C179.55 255.719 179.568 255.646 179.585 255.572V255.572C179.739 254.928 179.897 254.184 180.039 253.35C180.378 251.353 180.625 248.843 180.492 245.976V245.973C180.432 244.673 180.293 243.3 180.049 241.869V241.868C179.985 241.492 179.914 241.111 179.835 240.728C179.593 239.55 179.298 238.429 178.961 237.365C178.881 237.11 178.798 236.858 178.713 236.61L178.711 236.605C178.57 236.191 178.422 235.787 178.27 235.391C177.619 233.702 176.877 232.177 176.111 230.823V230.822C175.85 230.358 175.585 229.916 175.32 229.493C174.602 228.346 173.884 227.345 173.218 226.492L173.217 226.491C173.133 226.383 173.049 226.278 172.967 226.174L172.646 225.78C172.467 225.563 172.293 225.356 172.125 225.163C171.795 224.783 171.493 224.449 171.226 224.163C171.531 224.287 171.863 224.418 172.22 224.553C172.517 224.666 172.832 224.782 173.164 224.899C173.977 225.186 174.89 225.483 175.898 225.767C175.92 225.772 175.941 225.778 175.963 225.784C176.253 225.866 176.551 225.946 176.856 226.025L177.054 226.075C177.862 226.28 178.722 226.475 179.628 226.649L180.15 226.745C180.298 226.771 180.448 226.797 180.6 226.823C180.802 226.858 181.004 226.89 181.212 226.921H181.213C181.921 227.031 182.655 227.126 183.41 227.206C183.681 227.234 183.953 227.259 184.229 227.282H184.23C184.284 227.287 184.338 227.292 184.392 227.296C184.681 227.32 184.97 227.341 185.265 227.359C185.909 227.399 186.568 227.426 187.242 227.437C187.563 227.442 187.885 227.445 188.212 227.442C188.221 227.442 188.228 227.442 188.237 227.441H188.238C188.563 227.44 188.893 227.436 189.225 227.425C189.848 227.409 190.481 227.377 191.124 227.331C191.375 227.314 191.627 227.293 191.882 227.272C191.957 227.264 192.032 227.258 192.107 227.25C192.117 227.25 192.126 227.249 192.136 227.247C192.46 227.218 192.78 227.183 193.097 227.146H193.098C193.768 227.069 194.423 226.977 195.064 226.873C195.351 226.827 195.635 226.778 195.917 226.726C195.975 226.715 196.032 226.704 196.089 226.695C196.358 226.644 196.624 226.592 196.887 226.538C197.634 226.385 198.359 226.216 199.062 226.033C199.259 225.982 199.452 225.93 199.645 225.878C199.8 225.835 199.953 225.793 200.104 225.749C200.268 225.703 200.431 225.654 200.592 225.606C201.476 225.343 202.32 225.062 203.125 224.769C203.18 224.75 203.235 224.73 203.29 224.708L204.185 224.369C204.196 224.365 204.207 224.36 204.217 224.356C205.157 223.986 206.038 223.604 206.854 223.219C207.165 223.073 207.467 222.927 207.76 222.781C208.716 222.306 209.577 221.835 210.333 221.393C210.644 221.212 210.939 221.035 211.216 220.866C211.561 220.65 211.881 220.448 212.171 220.259Z" fill="url(#paint2_linear_655_383)"/>
<path opacity="0.4" d="M208.093 224.094L207.995 223.708L207.758 222.778L206.853 223.216L207.088 224.143L205.977 231.288V231.289V231.288L204.215 224.353L204.184 224.365L203.736 224.535L203.289 224.705C203.234 224.726 203.179 224.746 203.124 224.766L202.082 231.472L200.591 225.604C200.43 225.651 200.268 225.699 200.103 225.746C199.952 225.789 199.799 225.832 199.644 225.875C199.452 225.927 199.258 225.98 199.061 226.03L198.186 231.657L196.886 226.535C196.623 226.589 196.357 226.641 196.088 226.692C196.031 226.703 195.975 226.714 195.916 226.723C195.635 226.775 195.351 226.824 195.063 226.87L194.29 231.842L193.097 227.144H193.096C192.779 227.181 192.459 227.214 192.135 227.245C192.125 227.246 192.116 227.247 192.106 227.247C192.031 227.255 191.957 227.262 191.881 227.269C191.627 227.291 191.374 227.311 191.123 227.329L190.394 232.027L189.225 227.423C188.893 227.434 188.564 227.438 188.238 227.439H188.237C188.228 227.44 188.221 227.44 188.212 227.44C187.885 227.442 187.562 227.44 187.242 227.435L186.499 232.212L185.266 227.358C184.971 227.341 184.681 227.319 184.393 227.295C184.366 227.293 184.339 227.291 184.312 227.289C184.285 227.286 184.258 227.284 184.231 227.282H184.23L183.411 227.205L182.604 232.397L181.214 226.92H181.213L180.601 226.822C180.45 226.796 180.3 226.77 180.151 226.744L179.629 226.648L178.707 232.581L177.055 226.074L176.857 226.024C176.629 225.965 176.405 225.905 176.185 225.844C176.111 225.824 176.037 225.804 175.965 225.783L175.923 225.619L175.9 225.766L175.321 229.493C175.586 229.916 175.851 230.358 176.112 230.821L176.542 228.053L178.321 235.061V235.061L178.27 235.388C178.422 235.783 178.57 236.188 178.711 236.602L178.713 236.606L178.94 237.499L180.049 241.866V241.867L180.72 244.509L180.492 245.97V245.973C180.625 248.839 180.379 251.349 180.039 253.347L179.585 255.569V255.57C179.568 255.643 179.55 255.716 179.533 255.787C179.571 255.797 179.61 255.806 179.648 255.815L179.947 255.888L180.227 254.088L181.338 246.944L183.118 253.957V253.958L182.729 256.462C183.045 256.517 183.37 256.57 183.702 256.619L183.738 256.392L183.8 256.634C184.141 256.684 184.494 256.731 184.852 256.776L184.123 253.91V253.909L185.235 246.761L187.015 253.769V253.77L186.521 256.946C186.844 256.974 187.174 256.997 187.508 257.017L187.634 256.208L187.845 257.037C188.182 257.054 188.525 257.068 188.872 257.078L188.02 253.726V253.725L189.131 246.578L190.911 253.586V253.587L190.365 257.095C190.693 257.094 191.027 257.088 191.365 257.078H191.366L191.529 256.023L191.794 257.065C192.125 257.051 192.46 257.035 192.798 257.013L191.916 253.539V253.538L193.027 246.391L194.807 253.399V253.4L194.263 256.897C194.606 256.865 194.944 256.829 195.278 256.788H195.278L195.425 255.838L195.654 256.74C195.986 256.698 196.313 256.652 196.635 256.602L195.81 253.357V253.356L196.922 246.208L198.702 253.216V253.217L198.218 256.333C198.567 256.266 198.911 256.196 199.249 256.123L199.321 255.655L199.429 256.083L200.298 255.882L200.389 255.86L199.707 253.172V253.171L200.818 246.025L202.598 253.032V253.033L202.235 255.366C202.538 255.278 202.834 255.189 203.122 255.098L203.282 255.048C203.547 254.964 203.807 254.877 204.061 254.792L203.603 252.984V252.983L204.714 245.838L206.494 252.846V252.847L206.321 253.956C206.46 253.9 206.598 253.844 206.733 253.789C206.958 253.695 207.176 253.602 207.388 253.51C207.478 253.472 207.564 253.434 207.651 253.396L207.499 252.802V252.802L207.761 251.126C207.512 250.591 207.266 250.016 207.029 249.403L206.881 250.363L205.101 243.354L205.288 242.149V242.148C205.28 242.083 205.274 242.019 205.267 241.953C205.001 239.119 205.198 236.474 205.668 234.067C205.808 233.351 205.972 232.655 206.155 231.981L207.453 228.212L207.454 228.21L207.708 226.576L207.877 227.242C208.095 226.762 208.32 226.303 208.544 225.865V225.864L208.093 224.094ZM199.916 226.946L201.696 233.953V233.955L200.584 241.103L198.804 234.096V234.094L199.916 226.946ZM196.02 227.129L197.8 234.137V234.138L196.689 241.285L194.909 234.277V234.276L196.02 227.129ZM192.123 227.317L193.903 234.325V234.326L192.792 241.472L191.012 234.464V234.463L192.123 227.317ZM188.228 227.499L190.008 234.507V234.508L188.896 241.656L187.116 234.648V234.647L188.228 227.499ZM184.333 227.683L186.113 234.695V234.696L185.002 241.842L183.222 234.83V234.829L184.333 227.683ZM179.325 235.015V235.015L180.436 227.869L182.217 234.877V234.878L181.105 242.025L179.325 235.015ZM183.505 251.472L181.724 244.461L182.835 237.313L184.616 244.326L183.505 251.472ZM187.399 251.286L185.619 244.277L186.73 237.13L188.51 244.139L187.399 251.286ZM191.296 251.102L189.516 244.093L190.627 236.946L192.406 243.955L191.296 251.102ZM195.191 250.918L193.411 243.909L194.522 236.761L196.302 243.77L195.191 250.918ZM199.087 250.734L197.307 243.725L198.418 236.577L200.198 243.586L199.087 250.734ZM202.983 250.549L201.204 243.541V243.54L202.314 236.393L204.094 243.402L202.983 250.549ZM204.48 240.919L202.7 233.911V233.91L203.811 226.764L205.591 233.772V233.773L204.48 240.919Z" fill="white"/>
<path d="M209.772 215.234C210.121 215.34 210.447 215.52 210.778 215.693C211.108 215.87 211.432 216.069 211.743 216.311C212.051 216.552 212.349 216.839 212.591 217.2C212.715 217.377 212.814 217.581 212.895 217.793C212.914 217.847 212.929 217.903 212.945 217.958C212.961 218.014 212.98 218.068 212.988 218.126C213.008 218.24 213.03 218.355 213.034 218.471C213.046 218.703 213.028 218.936 212.978 219.155C212.927 219.375 212.853 219.581 212.763 219.774C212.578 220.155 212.34 220.484 212.082 220.771C211.561 221.348 210.971 221.795 210.365 222.192C209.756 222.587 209.128 222.931 208.487 223.24C207.848 223.551 207.198 223.829 206.542 224.086C205.229 224.599 203.891 225.026 202.543 225.399C199.844 226.142 197.098 226.671 194.336 227.051C191.573 227.427 188.791 227.653 186.001 227.706C184.606 227.732 183.208 227.712 181.811 227.636C180.415 227.558 179.019 227.427 177.628 227.205C176.933 227.093 176.24 226.961 175.551 226.793C174.862 226.626 174.176 226.425 173.501 226.168C172.828 225.908 172.161 225.596 171.538 225.145C171.384 225.031 171.232 224.909 171.088 224.771C170.943 224.637 170.807 224.484 170.681 224.319C170.554 224.155 170.445 223.967 170.355 223.768C170.266 223.568 170.201 223.35 170.173 223.127C170.144 222.905 170.144 222.678 170.178 222.459C170.212 222.241 170.273 222.033 170.352 221.838C170.515 221.451 170.739 221.116 170.988 220.823C173.484 217.89 176.636 218.518 176.636 218.518C176.005 218.771 175.601 218.96 174.998 219.26C174.395 219.56 173.808 219.889 173.26 220.257C172.713 220.625 172.199 221.038 171.803 221.508C171.604 221.742 171.446 221.991 171.341 222.243C171.291 222.369 171.256 222.494 171.236 222.618C171.217 222.742 171.22 222.863 171.235 222.983C171.251 223.103 171.286 223.22 171.338 223.336C171.391 223.451 171.455 223.566 171.541 223.675C171.707 223.894 171.928 224.097 172.176 224.278C172.676 224.64 173.271 224.923 173.888 225.156C174.507 225.39 175.152 225.577 175.807 225.733C176.463 225.89 177.129 226.016 177.8 226.121C179.142 226.33 180.505 226.455 181.87 226.525C183.236 226.595 184.607 226.609 185.977 226.579C188.719 226.518 191.459 226.285 194.177 225.906C196.893 225.523 199.59 224.993 202.224 224.257C203.54 223.889 204.84 223.468 206.102 222.97C206.733 222.721 207.355 222.452 207.958 222.156C208.562 221.861 209.148 221.538 209.698 221.178C210.247 220.818 210.763 220.415 211.168 219.961C211.372 219.735 211.538 219.494 211.654 219.253C211.71 219.132 211.752 219.011 211.779 218.894C211.806 218.776 211.812 218.661 211.806 218.548C211.806 218.491 211.79 218.436 211.782 218.379C211.78 218.351 211.768 218.324 211.761 218.296C211.752 218.268 211.745 218.241 211.736 218.213C211.691 218.104 211.642 217.994 211.565 217.888C211.421 217.674 211.217 217.471 210.982 217.289C210.745 217.106 210.479 216.943 210.199 216.794C209.917 216.647 209.619 216.516 209.316 216.395C208.092 215.922 206.766 215.626 205.431 215.41C204.093 215.195 203.155 215.095 201.791 215.019C201.66 214.794 205.834 214.036 209.772 215.234Z" fill="url(#paint3_linear_655_383)"/>
<path fill-rule="evenodd" clip-rule="evenodd" d="M101.546 280.416C100.968 275.397 103.057 270.783 106.547 268.432C107.597 267.724 108.382 266.68 108.827 265.495C109.664 263.259 111.624 261.579 114.071 261.296C114.077 261.296 114.084 261.295 114.091 261.295C115.21 261.169 116.216 260.539 116.717 259.53C118.195 256.55 123.881 253.171 127.166 252.792C132.629 252.161 136.718 256.455 137.427 262.601C138.136 268.747 132.215 275.66 126.752 276.29C125.99 276.378 125.238 276.367 124.504 276.265C123.527 276.129 122.696 276.923 122.813 277.901C122.816 277.921 122.818 277.941 122.82 277.961C123.606 284.77 119.48 290.84 113.607 291.518C107.731 292.197 102.332 287.226 101.546 280.416Z" fill="url(#paint4_linear_655_383)"/>
<path d="M140.059 304.861C140.059 304.861 143.476 314.352 143.788 318.218C144.099 322.085 127.207 331.463 127.207 331.463C127.081 331.206 126.86 330.672 126.881 329.966C126.902 329.211 127.188 328.662 127.337 328.416C128.618 327.4 130.425 325.798 132.572 323.801C135.17 321.383 137.73 318.746 137.574 317.867C137.263 316.11 133.845 305.916 133.845 305.916L140.059 304.861Z" fill="url(#paint5_linear_655_383)"/>
<path d="M134.428 268.969C138.211 265.988 142.082 261.385 143.299 259.014C145.404 254.911 145.987 253.889 147.324 250.805C147.462 249.435 147.266 245.942 149.448 244.24C151.965 242.274 153.068 242.43 153.068 242.43C153.068 242.43 153.316 244.218 152.364 245.447C151.411 246.676 151.183 250.873 149.612 252.003C149.556 252.044 149.503 252.072 149.448 252.104C148.957 255.077 148.173 257.403 147.517 259.02C144.889 265.503 143.062 265.796 137.503 273.971C137.231 274.37 136.7 275.157 136.142 275.08C135.094 274.932 134.643 271.836 134.428 268.969Z" fill="url(#paint6_linear_655_383)"/>
<path d="M126.598 338.419C126.598 338.419 123.592 339.087 123.592 339.755C123.592 340.424 125.597 344.432 127.935 345.1C130.273 345.768 129.939 344.098 128.937 343.095C127.934 342.093 127.6 338.085 126.598 338.419Z" fill="url(#paint7_linear_655_383)"/>
<path d="M127.718 328.306C127.718 328.306 124.651 328.037 124.449 328.674C124.248 329.311 124.951 333.737 126.98 335.079C129.009 336.421 129.193 334.727 128.539 333.47C127.886 332.212 128.774 328.288 127.718 328.306Z" fill="url(#paint8_linear_655_383)"/>
<path d="M124.846 304.473C124.846 304.473 129.806 319.976 128.563 325.6C127.321 331.223 125.456 338.606 125.456 338.606C125.456 338.606 124.919 339.213 126.59 339.581C126.841 339.636 127.098 339.526 127.238 339.311C128.4 337.515 133.639 329.228 134.467 324.545C135.399 319.273 130.738 305.915 130.738 305.915L124.846 304.473Z" fill="url(#paint9_linear_655_383)"/>
<path fill-rule="evenodd" clip-rule="evenodd" d="M139.022 297.153L147.096 316.735C147.126 316.83 147.152 316.969 147.096 317.103C146.836 317.723 143.898 318.565 140.943 318.685C139.016 318.764 135.966 320.369 135.61 320.626C135.578 320.649 135.424 320.768 135.249 320.738C135.066 320.706 134.955 320.532 134.913 320.455L131.111 298.727L139.022 297.153Z" fill="url(#paint10_linear_655_383)"/>
<path fill-rule="evenodd" clip-rule="evenodd" d="M133.694 298.345C133.694 298.345 134.57 304.118 134.702 307.993C134.834 311.868 136.454 321.337 136.454 321.337C136.454 321.337 136.636 322.888 128.57 322.595C127.916 322.632 125.736 322.274 125.517 322.057C125.299 321.839 125.299 321.675 125.299 321.675C125.299 321.675 121.402 302.761 122.71 299.491L133.694 298.345Z" fill="url(#paint11_linear_655_383)"/>
<path d="M136.974 271.957C137.195 272.33 137.228 272.69 137.239 272.841C137.976 282.214 138.274 288.859 138.274 288.859C138.363 290.852 138.642 293.715 139.522 297.18C137.403 297.889 135.621 298.448 134.321 298.844C134.321 298.844 124.718 301.773 121.346 300.152C121.187 300.075 121.087 299.952 121.087 299.952C121.087 299.952 121.087 299.952 121.087 299.952C121.087 299.952 120.994 299.796 120.999 299.585C121.039 297.657 122.81 286.155 122.81 286.155C123.373 282.503 123.707 275.516 124.814 272.13C124.875 271.942 124.979 271.644 125.234 271.343C126.339 270.044 128.153 271.238 132.202 270.9C132.634 270.864 135.037 270.599 136.14 271.194C136.699 271.497 136.973 271.957 136.974 271.957Z" fill="url(#paint12_linear_655_383)"/>
<path fill-rule="evenodd" clip-rule="evenodd" d="M132.164 265.592L130.771 270.628C130.723 270.853 130.517 271.941 131.195 272.929C131.307 273.092 132.092 274.197 133.073 274.072C133.97 273.956 134.801 272.842 134.725 271.374L135.354 266.046L132.164 265.592Z" fill="url(#paint13_linear_655_383)"/>
<path fill-rule="evenodd" clip-rule="evenodd" d="M134.707 257.659C133.428 256.629 127.048 259.339 126.311 260.517C125.953 261.09 126.607 262.574 127.372 263.948C127.185 263.938 127.007 264.031 126.865 264.298C126.383 265.205 128.095 266.359 129.004 266.568C129.076 266.673 129.119 266.734 129.119 266.734C129.119 266.734 132.028 269.516 136.366 267.102C140.704 264.69 134.707 257.659 134.707 257.659Z" fill="url(#paint14_linear_655_383)"/>
<path fill-rule="evenodd" clip-rule="evenodd" d="M126.463 263.984C126.463 263.984 130.428 266.514 130.21 259.158C130.21 259.158 132.354 260.81 132.603 258.785C132.603 258.785 136.075 259.04 136.075 257.608C136.075 256.175 130.461 253.765 127.4 257.358C124.339 260.95 126.463 263.984 126.463 263.984Z" fill="url(#paint15_linear_655_383)"/>
<path d="M137.484 244.139C135.408 246.358 136.599 251.413 136.599 251.413C136.599 251.413 136.653 251.51 136.752 251.646C136.49 253.69 135.972 256.125 134.951 258.752C132.486 265.093 128.429 269.114 126.016 271.153C125.725 271.359 125.312 271.72 125.06 272.286C124.463 273.633 125.157 275.725 126.324 276.146C126.64 276.259 127.62 276.478 129.947 274.178C132.412 271.744 134.558 268.294 136.429 261.748C137.08 259.469 137.847 256.291 138.344 252.396C138.536 252.331 138.739 252.206 138.948 252C140.26 250.71 139.791 246.463 140.495 245.146C141.201 243.829 140.495 241.727 140.495 241.727C140.495 241.727 139.559 241.919 137.484 244.139Z" fill="url(#paint16_linear_655_383)"/>
<path d="M165.404 207.581C165.251 207.875 165.091 208.162 164.923 208.441C164.801 208.645 164.675 208.845 164.546 209.042C162.372 212.339 159.149 214.621 155.559 215.672C155.349 215.734 155.138 215.791 154.925 215.844C154.794 215.878 154.662 215.909 154.529 215.938C154.325 215.984 154.12 216.026 153.914 216.063C150.485 216.693 146.826 216.228 143.494 214.493C143.4 214.444 143.307 214.394 143.214 214.344C143.081 214.272 142.948 214.197 142.817 214.12C142.743 214.078 142.671 214.035 142.598 213.99C142.467 213.912 142.338 213.832 142.21 213.749C139.174 211.803 136.977 208.976 135.782 205.786C135.698 205.562 135.619 205.336 135.545 205.108C135.505 204.984 135.467 204.86 135.429 204.736C135.36 204.505 135.296 204.274 135.237 204.04C134.301 200.319 134.671 196.254 136.582 192.582C137.613 190.602 138.993 188.924 140.609 187.582L140.705 187.504C140.954 187.299 141.211 187.103 141.473 186.914C141.497 186.896 141.523 186.879 141.547 186.861C143.607 185.391 145.98 184.427 148.46 184.034C148.528 184.022 148.595 184.012 148.663 184.003C148.99 183.956 149.32 183.918 149.65 183.89C149.742 183.882 149.834 183.875 149.925 183.869C152.796 183.677 155.754 184.245 158.493 185.671C159.301 186.091 160.06 186.57 160.766 187.1C160.841 187.157 160.915 187.214 160.988 187.271C161.098 187.356 161.207 187.443 161.313 187.53C161.401 187.602 161.489 187.676 161.575 187.75C163.995 189.822 165.701 192.525 166.575 195.479C166.593 195.543 166.611 195.606 166.629 195.668C166.71 195.956 166.784 196.245 166.849 196.537C166.871 196.637 166.893 196.737 166.914 196.838C167.565 200.029 167.267 203.432 165.877 206.599C165.781 206.818 165.679 207.036 165.573 207.252C165.517 207.361 165.461 207.471 165.404 207.581Z" fill="url(#paint17_linear_655_383)"/>
<path opacity="0.5" d="M166.847 196.536C166.782 196.244 166.708 195.955 166.627 195.667C165.347 194.815 163.061 193.561 160.309 192.918C160.281 192.911 160.254 192.905 160.226 192.899C159.134 192.649 158.119 192.532 157.17 192.5C157.03 192.496 156.891 192.493 156.754 192.492C156.355 191.599 155.908 190.747 155.42 189.942C156.629 189.826 159.008 189.229 161.311 187.53C161.204 187.443 161.097 187.356 160.987 187.271C160.913 187.214 160.839 187.157 160.764 187.1C158.658 188.604 156.536 189.09 155.359 189.231C155.224 189.247 155.101 189.259 154.993 189.267C153.848 187.533 152.502 186.051 151.016 184.914C150.891 184.82 150.775 184.729 150.664 184.645C150.268 184.34 149.948 184.094 149.65 183.891C149.319 183.919 148.99 183.957 148.662 184.004C148.594 184.014 148.527 184.024 148.459 184.035C149.007 184.263 149.45 184.604 150.231 185.206C150.342 185.292 150.459 185.382 150.584 185.477C151.914 186.494 153.109 187.795 154.139 189.291C153.233 189.263 152.206 189.069 150.657 188.738C150.598 188.726 150.54 188.713 150.479 188.7C150.352 188.672 150.221 188.644 150.087 188.615C150.053 188.607 150.017 188.599 149.983 188.592C149.949 188.585 149.915 188.577 149.881 188.57C149.799 188.553 149.715 188.534 149.63 188.516C148.516 188.273 147.689 188.049 146.96 187.853C146.423 187.709 145.922 187.572 145.376 187.449L145.372 187.448C144.807 187.318 144.192 187.2 143.44 187.095C142.7 186.991 142.078 186.914 141.544 186.861C141.52 186.879 141.495 186.896 141.47 186.914C141.209 187.103 140.953 187.299 140.702 187.504C141.375 187.544 142.232 187.64 143.34 187.796C144.075 187.9 144.677 188.015 145.232 188.143C145.235 188.144 145.238 188.144 145.241 188.145C145.768 188.265 146.255 188.397 146.775 188.537C147.513 188.737 148.348 188.963 149.479 189.208C149.557 189.224 149.633 189.242 149.709 189.258C149.742 189.265 149.775 189.272 149.808 189.279C149.85 189.288 149.893 189.298 149.936 189.307C150.007 189.323 150.076 189.338 150.145 189.352C150.21 189.367 150.274 189.38 150.338 189.394C150.464 189.421 150.587 189.448 150.708 189.473C152.453 189.843 153.546 190.034 154.606 189.999C154.627 190.032 154.649 190.067 154.669 190.101C155.143 190.863 155.576 191.667 155.964 192.504C154.484 192.562 153.159 192.802 151.921 193.027C150.024 193.371 146.239 194.324 142.205 196.843C140.351 198 138.25 199.312 136.493 201.854C136.015 202.544 135.596 203.276 135.237 204.04C135.296 204.274 135.359 204.505 135.429 204.736C135.466 204.86 135.505 204.984 135.545 205.108C135.951 204.098 136.464 203.142 137.077 202.257C138.752 199.835 140.698 198.619 142.581 197.443C146.515 194.988 150.201 194.059 152.048 193.724C153.336 193.49 154.722 193.239 156.276 193.204C156.292 193.242 156.308 193.28 156.324 193.318C156.845 194.561 157.268 195.864 157.584 197.195C157.188 197.196 156.734 197.237 156.219 197.341C153.597 197.868 152.025 198.974 149.748 201.892C147.546 204.714 144.504 209.003 142.211 213.748C142.339 213.83 142.468 213.911 142.599 213.99C142.672 214.034 142.744 214.077 142.818 214.119C145.087 209.405 148.117 205.134 150.307 202.328C152.488 199.533 153.903 198.53 156.36 198.034C156.899 197.926 157.356 197.892 157.742 197.903C157.75 197.938 157.757 197.974 157.764 198.009C158.282 200.576 158.393 203.225 158.017 205.732C157.273 210.681 155.262 214.186 153.916 216.061C154.123 216.023 154.328 215.981 154.531 215.935C154.665 215.906 154.796 215.874 154.928 215.842C156.282 213.8 158.03 210.418 158.718 205.836C159.091 203.354 159.005 200.657 158.486 197.987C158.663 198.024 158.816 198.069 158.948 198.116C159.124 198.177 159.263 198.241 159.372 198.291C159.444 198.324 159.506 198.353 159.563 198.374C162.004 199.255 163.129 201.188 163.5 201.824C165.179 204.707 164.919 207.067 164.549 209.038C164.678 208.842 164.804 208.642 164.926 208.438C165.095 208.158 165.254 207.871 165.408 207.578C165.465 207.468 165.52 207.358 165.574 207.248C165.632 205.854 165.41 203.697 164.111 201.468C163.032 199.616 161.583 198.35 159.803 197.708C159.775 197.699 159.723 197.674 159.668 197.649C159.5 197.571 159.248 197.455 158.898 197.359C158.861 197.349 158.823 197.339 158.784 197.329C158.647 197.295 158.495 197.266 158.33 197.242C158.112 196.269 157.834 195.304 157.502 194.356C157.365 193.965 157.219 193.582 157.064 193.204C158.002 193.23 158.999 193.342 160.072 193.587C160.089 193.59 160.108 193.595 160.125 193.599C160.126 193.599 160.128 193.599 160.13 193.599C163.107 194.293 165.777 196.004 166.916 196.834L166.847 196.536Z" fill="url(#paint18_linear_655_383)"/>
<path d="M165.404 207.581C165.251 207.875 165.091 208.162 164.923 208.441C165.157 207.023 165.327 204.286 163.952 201.927C163.582 201.291 162.456 199.358 160.016 198.477C159.959 198.456 159.897 198.428 159.824 198.394C159.633 198.306 159.349 198.175 158.939 198.089C158.941 198.099 158.943 198.109 158.944 198.119C159.458 200.779 159.543 203.466 159.171 205.938C158.512 210.321 156.884 213.607 155.558 215.672C155.348 215.734 155.137 215.791 154.925 215.844C154.793 215.878 154.661 215.909 154.528 215.938C155.869 214.015 157.755 210.592 158.47 205.834C158.851 203.293 158.732 200.606 158.195 198.005C158.059 198.001 157.915 198.003 157.759 198.011C157.476 198.027 157.162 198.065 156.813 198.136C154.356 198.631 152.942 199.634 150.76 202.43C148.55 205.26 145.486 209.582 143.211 214.345C143.078 214.273 142.945 214.198 142.815 214.121C142.741 214.079 142.669 214.036 142.596 213.991C144.896 209.191 147.977 204.843 150.201 201.994C152.478 199.076 154.05 197.97 156.672 197.442C157.187 197.339 157.64 197.298 158.036 197.297C157.712 195.925 157.271 194.583 156.729 193.306C156.591 193.31 156.455 193.314 156.32 193.32C154.93 193.385 153.675 193.612 152.501 193.825C150.653 194.159 146.967 195.088 143.034 197.544C141.151 198.719 139.204 199.936 137.53 202.358C136.801 203.411 136.213 204.561 135.78 205.788C135.695 205.564 135.616 205.338 135.542 205.11C135.502 204.986 135.464 204.862 135.426 204.738C135.837 203.755 136.347 202.824 136.947 201.955C138.705 199.413 140.806 198.101 142.66 196.944C146.694 194.425 150.478 193.472 152.375 193.128C153.613 192.903 154.939 192.663 156.419 192.605C156.014 191.731 155.559 190.892 155.061 190.1C154.931 190.104 154.799 190.105 154.668 190.103C153.632 190.084 152.494 189.861 150.706 189.475C150.586 189.45 150.463 189.423 150.336 189.396C150.273 189.382 150.209 189.369 150.143 189.354C150.074 189.34 150.005 189.324 149.935 189.309C149.891 189.3 149.848 189.29 149.806 189.281C149.773 189.274 149.741 189.266 149.707 189.259C148.69 189.033 147.917 188.825 147.23 188.638C146.563 188.458 145.953 188.294 145.24 188.147C145.237 188.146 145.234 188.146 145.231 188.145C144.801 188.056 144.335 187.973 143.796 187.898C142.563 187.725 141.385 187.619 140.606 187.585L140.701 187.507C140.951 187.302 141.208 187.105 141.469 186.917C142.113 186.966 142.897 187.057 143.895 187.196C144.449 187.275 144.93 187.36 145.37 187.45L145.375 187.451C146.107 187.601 146.732 187.771 147.414 187.955C148.098 188.14 148.868 188.347 149.879 188.572C149.912 188.58 149.946 188.588 149.981 188.595C150.015 188.603 150.05 188.61 150.084 188.617C150.219 188.646 150.349 188.675 150.476 188.702C150.537 188.716 150.595 188.727 150.654 188.741C152.462 189.132 153.601 189.362 154.593 189.393C153.563 187.897 152.367 186.596 151.037 185.579C150.913 185.483 150.796 185.393 150.685 185.308C149.898 184.702 149.261 184.26 148.659 184.006C148.986 183.958 149.315 183.92 149.646 183.893C149.737 183.884 149.829 183.878 149.92 183.872C150.272 184.095 150.641 184.379 151.117 184.746C151.228 184.831 151.344 184.92 151.468 185.016C152.915 186.123 154.23 187.558 155.356 189.233C155.385 189.278 155.415 189.323 155.446 189.369C156.532 189.288 158.586 189.066 160.984 187.274C161.094 187.359 161.202 187.445 161.309 187.533C161.397 187.605 161.484 187.679 161.57 187.753C159.297 189.409 157.071 189.929 155.873 190.044C156.345 190.821 156.778 191.644 157.167 192.503C157.181 192.534 157.194 192.563 157.209 192.594C158.171 192.602 159.198 192.694 160.307 192.921C160.43 192.947 160.555 192.973 160.68 193.002C163.355 193.613 165.346 194.676 166.57 195.482C166.589 195.545 166.607 195.608 166.624 195.671C166.705 195.958 166.779 196.248 166.844 196.54C165.816 195.771 163.661 194.409 160.521 193.692C160.387 193.662 160.255 193.634 160.123 193.606C160.121 193.606 160.119 193.606 160.117 193.605C159.197 193.42 158.332 193.332 157.513 193.31C157.668 193.688 157.815 194.071 157.952 194.461C158.282 195.405 158.558 196.367 158.777 197.335C158.778 197.339 158.778 197.344 158.779 197.348C158.817 197.353 158.855 197.359 158.891 197.366C159.486 197.463 159.884 197.646 160.117 197.754C160.172 197.78 160.224 197.803 160.252 197.814C162.032 198.456 163.482 199.722 164.56 201.573C165.814 203.726 165.971 205.454 165.87 206.602L165.566 207.255C165.517 207.361 165.461 207.471 165.404 207.581Z" fill="#3497DA"/>
<path d="M33.1415 384.877C33.1406 384.794 33.146 384.71 33.1668 384.625C34.4264 379.63 39.5779 377.07 39.5779 377.07L42.0557 377.264C43.4804 381.666 44.3993 383.815 44.1702 385.018C44.1639 385.051 44.1531 385.084 44.145 385.116C42.1008 385.298 37.8935 385.418 33.1415 384.877Z" fill="#09005D"/>
<path d="M44.1441 385.116C44.0341 385.518 43.7374 385.83 43.3578 385.91C40.4507 386.521 35.8295 386.029 33.889 385.775C33.4607 385.72 33.1478 385.324 33.1415 384.876C37.8935 385.418 42.1008 385.298 44.1441 385.116Z" fill="url(#paint19_linear_655_383)"/>
<path d="M37.5382 373.214L38.623 378.436C38.7023 378.819 38.9963 379.105 39.3525 379.138C39.788 379.179 40.4093 379.203 41.0332 379.111C41.5932 379.029 41.9827 378.46 41.8835 377.85L41.1297 373.213H37.5382V373.214Z" fill="url(#paint20_linear_655_383)"/>
<path d="M65.1961 385.073C62.5496 384.999 61.1808 384.687 60.4739 384.399C60.4721 384.662 60.4739 384.93 60.482 385.206C60.491 385.503 60.7111 385.739 60.9807 385.738L75.5098 385.644C75.9733 385.641 76.2447 385.103 76.0436 384.678C74.1392 384.835 69.2871 385.188 65.1961 385.073Z" fill="url(#paint21_linear_655_383)"/>
<path d="M76.0436 384.677C76.0265 384.64 76.0112 384.602 75.9859 384.568C74.7028 382.776 71.435 379.205 64.977 377.657L61.8788 377.559C61.8788 377.559 60.4992 379.957 60.473 384.398C61.1809 384.687 62.5496 384.998 65.1952 385.072C69.2872 385.188 74.1392 384.835 76.0436 384.677Z" fill="url(#paint22_linear_655_383)"/>
<path d="M61.3053 372.864C61.3396 373.095 61.7643 376.604 61.9284 377.965C61.9671 378.289 62.2016 378.538 62.4973 378.574C63.0248 378.637 63.8788 378.693 64.6254 378.541C65.0284 378.458 65.3197 378.071 65.3197 377.621V372.112L61.3053 372.864Z" fill="url(#paint23_linear_655_383)"/>
<path d="M39.6076 304.639C39.6076 304.639 34.6501 348.703 37.4048 376.244C37.4048 376.244 40.7095 376.244 42.3623 375.693C42.3623 375.693 47.5137 332.608 49.1801 320.28C49.2432 319.816 49.9069 319.794 49.9979 320.254C52.0538 330.627 60.1295 371.3 61.0898 375.142C61.0898 375.142 63.8436 376.244 66.0473 375.142C66.0473 375.142 61.6407 316.206 58.336 305.74L39.6076 304.639Z" fill="url(#paint24_linear_655_383)"/>
<path d="M29.6934 253.414C29.6934 253.414 50.6246 250.109 67.1483 254.516L66.0464 271.59C66.0464 271.59 61.6398 295.275 58.3351 305.74C58.3351 305.74 45.6662 307.943 39.6076 304.639C39.6076 304.639 34.6501 274.895 31.8963 270.488C31.8963 270.488 29.1425 258.921 29.6934 253.414Z" fill="url(#paint25_linear_655_383)"/>
<path d="M44.2334 238.363L42.1486 252.463C42.1486 252.463 47.9736 255.14 52.0529 252.349L51.1747 242.398L44.2334 238.363Z" fill="url(#paint26_linear_655_383)"/>
<path d="M53.2116 229.181C53.2775 229.3 54.5344 236.41 55.3081 240.812C55.6273 242.63 54.291 244.319 52.4479 244.428L50.7599 244.528C47.659 244.712 44.9277 242.504 44.4579 239.433L43.2379 231.46C43.2361 231.461 51.6165 226.289 53.2116 229.181Z" fill="url(#paint27_linear_655_383)"/>
<path d="M41.4164 231.48C40.769 230.676 40.2054 229.373 41.5832 228.006C42.9782 226.621 44.5607 226.966 45.5652 227.43C46.0097 227.636 46.557 227.545 46.8735 227.171C47.0142 227.005 47.2225 226.891 47.5318 226.926C48.1152 226.992 48.6364 226.606 48.7058 226.023C48.8248 225.023 49.3568 223.845 51.1251 223.504C54.3676 222.878 55.9852 226.123 55.9275 228.403C55.8698 230.684 52.3153 231.163 50.2991 230.785C48.8176 230.506 47.5372 231.808 46.9619 232.519C46.7527 232.776 46.6752 233.115 46.75 233.437L47.2631 235.641C46.9078 236.327 46.5597 237.025 46.0611 237.61C45.7022 238.031 45.3082 238.262 44.8907 238.361C44.2856 237.235 42.595 237.044 41.8096 237.019C41.5093 237.009 41.228 236.877 41.0305 236.65C40.4381 235.97 39.5093 234.454 41.2857 232.964C41.7275 232.596 41.778 231.93 41.4164 231.48Z" fill="url(#paint28_linear_655_383)"/>
<path d="M45.475 240.721C45.475 240.721 45.4047 236.743 43.7951 236.369C42.1847 235.995 40.4471 237.16 41.8249 239.541C43.5381 242.505 45.475 240.721 45.475 240.721Z" fill="url(#paint29_linear_655_383)"/>
<path d="M33.2551 253.256C28.4851 252.822 24.9793 251.548 22.4203 249.793C21.258 253.748 19.8594 257.81 17.8279 261.37C26.7719 269.072 39.1144 272.432 39.1144 272.432C39.3254 268.912 33.2551 253.256 33.2551 253.256Z" fill="url(#paint30_linear_655_383)"/>
<path d="M16.8929 228.702L15.3041 226.452C3.81728 242.646 9.26536 253.997 17.8279 261.371C19.8595 257.81 21.258 253.749 22.4203 249.794C12.4042 242.927 16.8929 228.702 16.8929 228.702Z" fill="url(#paint31_linear_655_383)"/>
<path d="M15.1445 226.622C15.1445 226.622 14.6116 220.23 17.8081 219.697C21.0037 219.164 22.0695 222.361 22.6024 223.959C23.1353 225.557 17.8081 228.753 16.7432 228.753C15.6783 228.753 15.1445 226.622 15.1445 226.622Z" fill="url(#paint32_linear_655_383)"/>
<path d="M62.0357 254.854C62.0357 254.854 55.9654 270.51 56.1764 274.03C56.1764 274.03 70.1816 270.217 79.1653 261.406C76.5702 258.487 74.4818 254.967 72.7289 251.484C70.1816 253.191 66.7191 254.428 62.0357 254.854Z" fill="url(#paint33_linear_655_383)"/>
<path d="M79.9867 228.05L78.3979 230.3C78.3979 230.3 82.9254 244.656 72.728 251.485C74.4809 254.967 76.5693 258.488 79.1644 261.406C86.69 254.026 90.6908 243.14 79.9867 228.05Z" fill="url(#paint34_linear_655_383)"/>
<path d="M80.1472 228.22C80.1472 228.22 80.6802 221.828 77.4836 221.295C74.2871 220.762 73.2222 223.959 72.6893 225.557C72.1564 227.154 77.4836 230.351 78.5485 230.351C79.6134 230.351 80.1472 228.22 80.1472 228.22Z" fill="url(#paint35_linear_655_383)"/>
<path d="M95.249 190.489C95.2427 187.592 92.0737 185.577 88.4736 185.241C84.2398 184.842 81.2292 186.731 81.1278 190.064C78.3581 188.93 75.4362 189.659 75.6581 192.701C74.9355 191.871 72.2418 191.896 71.2721 192.124C70.2517 192.371 69.2122 193.29 68.8573 194.184C68.5721 194.907 68.5531 195.236 68.6038 195.743C66.9876 195.217 63.3178 194.888 62.3988 196.371C60.7636 199.007 67.2981 199.09 68.6165 198.291C68.8953 200.345 75.9179 200.681 77.6165 198.786C78.9475 200.123 80.8489 200.421 82.9088 200.541C86.3821 200.75 88.5117 199.571 91.2244 198.19C94.1716 200.687 99.2674 200.731 101.923 197.873C102.601 198.513 104.465 198.709 105.96 198.355C106.943 198.12 107.171 197.702 107.171 197.702C107.697 197.943 108.325 198.107 108.971 198.24C110.898 198.646 114.479 198.215 112.977 196.485C112.463 195.895 110.587 195.521 109.795 195.705C108.952 194.051 105.58 192.485 103.647 193.886C103.571 191.883 101.739 190.318 99.166 189.919C98.3103 189.792 96.2378 189.678 95.249 190.489Z" fill="#EBEBEB"/>
<path d="M74.4412 167.615C73.5665 167.222 72.5334 167.184 71.7855 167.127C70.9235 167.057 70.651 166.886 70.4862 166.702C68.3946 163.704 64.934 163.59 62.8678 164.452C62.3608 162.392 59.8699 160.599 57.1192 161.207C57.2143 158.526 53.7917 155.649 50.7178 154.996C47.7705 154.368 45.2036 154.635 43.5177 156.568C41.7177 153.05 34.6634 152.061 30.8415 153.925C28.6486 154.996 26.7852 156.092 25.8725 158.101C25.2704 159.432 25.0549 160.313 25.0485 162.101C23.5591 160.789 20.5802 160.434 18.5964 161.201C16.4541 162.031 16.2893 163.647 16.1879 165.289C14.09 164.756 12.683 165.105 12.29 165.219C10.94 165.618 10.1604 166.677 10.3442 167.532C9.27942 167.475 6.73152 168.337 7.02307 169.466C7.35265 170.733 10.2555 170.606 11.3456 170.562C12.2456 170.53 13.4055 170.29 14.3816 170.087C14.6795 170.233 15.4654 170.391 15.9598 170.385C17.8105 170.372 18.5964 169.58 18.8879 168.889C19.788 170.79 23.0077 172.242 25.2767 172.818C29.5549 173.915 35.6078 173.243 38.2444 170.049C38.5233 170.625 38.986 171.158 39.5184 171.602C40.5642 172.464 41.9775 173.066 43.4797 173.205C45.2353 173.37 49.9508 173.592 51.2818 170.803C52.2199 172.66 56.422 173.509 59.6101 173.053C60.8016 172.882 62.1453 172.47 63.1847 171.975C64.0214 171.576 64.4967 171.19 65.2383 170.746C65.8657 170.366 66.1509 170.372 66.9876 170.625C69.1805 171.285 71.7221 171.557 73.9595 170.619C75.7405 169.865 76.1144 168.369 74.4412 167.615Z" fill="#EBEBEB"/>
<path d="M127.123 178.516C134.051 178.516 139.666 172.926 139.666 166.03C139.666 159.134 134.051 153.544 127.123 153.544C120.196 153.544 114.58 159.134 114.58 166.03C114.58 172.926 120.196 178.516 127.123 178.516Z" fill="#FFBDA7"/>
<defs>
<linearGradient id="paint0_linear_655_383" x1="321.204" y1="213.835" x2="260.559" y2="271.764" gradientUnits="userSpaceOnUse">
<stop stop-color="#3498DB"/>
<stop offset="1" stop-color="#34495E"/>
</linearGradient>
<linearGradient id="paint1_linear_655_383" x1="170.85" y1="221.119" x2="212.587" y2="221.119" gradientUnits="userSpaceOnUse">
<stop stop-color="#FF928E"/>
<stop offset="1" stop-color="#FE7062"/>
</linearGradient>
<linearGradient id="paint2_linear_655_383" x1="171.225" y1="238.677" x2="212.171" y2="238.677" gradientUnits="userSpaceOnUse">
<stop stop-color="#FEBBBA"/>
<stop offset="1" stop-color="#FF928E"/>
</linearGradient>
<linearGradient id="paint3_linear_655_383" x1="191.595" y1="202.135" x2="191.595" y2="214.504" gradientUnits="userSpaceOnUse">
<stop stop-color="#FF928E"/>
<stop offset="1" stop-color="#FE7062"/>
</linearGradient>
<linearGradient id="paint4_linear_655_383" x1="127.591" y1="241.283" x2="117.146" y2="279.391" gradientUnits="userSpaceOnUse">
<stop stop-color="#09005D"/>
<stop offset="1" stop-color="#1A0F91"/>
</linearGradient>
<linearGradient id="paint5_linear_655_383" x1="163.727" y1="306.301" x2="125.244" y2="320.66" gradientUnits="userSpaceOnUse">
<stop stop-color="#FEBBBA"/>
<stop offset="1" stop-color="#FF928E"/>
</linearGradient>
<linearGradient id="paint6_linear_655_383" x1="131.032" y1="265.056" x2="157.791" y2="252.471" gradientUnits="userSpaceOnUse">
<stop stop-color="#FEBBBA"/>
<stop offset="1" stop-color="#FF928E"/>
</linearGradient>
<linearGradient id="paint7_linear_655_383" x1="123.592" y1="341.826" x2="129.701" y2="341.826" gradientUnits="userSpaceOnUse">
<stop stop-color="#09005D"/>
<stop offset="1" stop-color="#1A0F91"/>
</linearGradient>
<linearGradient id="paint8_linear_655_383" x1="123.825" y1="330.649" x2="129.651" y2="332.489" gradientUnits="userSpaceOnUse">
<stop stop-color="#09005D"/>
<stop offset="1" stop-color="#1A0F91"/>
</linearGradient>
<linearGradient id="paint9_linear_655_383" x1="141.21" y1="311.189" x2="105.217" y2="336.652" gradientUnits="userSpaceOnUse">
<stop stop-color="#FEBBBA"/>
<stop offset="1" stop-color="#FF928E"/>
</linearGradient>
<linearGradient id="paint10_linear_655_383" x1="185.786" y1="277.653" x2="162.557" y2="292.738" gradientUnits="userSpaceOnUse">
<stop stop-color="#4F52FF"/>
<stop offset="1" stop-color="#4042E2"/>
</linearGradient>
<linearGradient id="paint11_linear_655_383" x1="148.739" y1="282.036" x2="111.33" y2="337.546" gradientUnits="userSpaceOnUse">
<stop stop-color="#4F52FF"/>
<stop offset="1" stop-color="#4042E2"/>
</linearGradient>
<linearGradient id="paint12_linear_655_383" x1="164.894" y1="242.059" x2="150.714" y2="260.462" gradientUnits="userSpaceOnUse">
<stop stop-color="#FF928E"/>
<stop offset="1" stop-color="#FE7062"/>
</linearGradient>
<linearGradient id="paint13_linear_655_383" x1="133.081" y1="282.629" x2="131.163" y2="267.637" gradientUnits="userSpaceOnUse">
<stop stop-color="#FEBBBA"/>
<stop offset="1" stop-color="#FF928E"/>
</linearGradient>
<linearGradient id="paint14_linear_655_383" x1="132.076" y1="255.301" x2="132.076" y2="239.211" gradientUnits="userSpaceOnUse">
<stop stop-color="#FEBBBA"/>
<stop offset="1" stop-color="#FF928E"/>
</linearGradient>
<linearGradient id="paint15_linear_655_383" x1="138.723" y1="263.31" x2="124.893" y2="257.856" gradientUnits="userSpaceOnUse">
<stop stop-color="#3498DB"/>
<stop offset="1" stop-color="#1A0F91"/>
</linearGradient>
<linearGradient id="paint16_linear_655_383" x1="120.774" y1="283.623" x2="138.372" y2="251.343" gradientUnits="userSpaceOnUse">
<stop stop-color="#FEBBBA"/>
<stop offset="1" stop-color="#FF928E"/>
</linearGradient>
<linearGradient id="paint17_linear_655_383" x1="136.564" y1="192.488" x2="173.332" y2="211.838" gradientUnits="userSpaceOnUse">
<stop stop-color="#E1473D"/>
<stop offset="1" stop-color="#E9605A"/>
</linearGradient>
<linearGradient id="paint18_linear_655_383" x1="167.184" y1="209.64" x2="124.363" y2="184.521" gradientUnits="userSpaceOnUse">
<stop stop-color="#2A3780"/>
<stop offset="1" stop-color="#171042"/>
</linearGradient>
<linearGradient id="paint19_linear_655_383" x1="39.2413" y1="393.621" x2="41.2524" y2="422.581" gradientUnits="userSpaceOnUse">
<stop stop-color="#09005D"/>
<stop offset="1" stop-color="#1A0F91"/>
</linearGradient>
<linearGradient id="paint20_linear_655_383" x1="40.5746" y1="368.188" x2="38.366" y2="387.464" gradientUnits="userSpaceOnUse">
<stop stop-color="#FEBBBA"/>
<stop offset="1" stop-color="#FF928E"/>
</linearGradient>
<linearGradient id="paint21_linear_655_383" x1="67.5687" y1="395.125" x2="65.5574" y2="424.087" gradientUnits="userSpaceOnUse">
<stop stop-color="#09005D"/>
<stop offset="1" stop-color="#1A0F91"/>
</linearGradient>
<linearGradient id="paint22_linear_655_383" x1="67.904" y1="378.916" x2="68.809" y2="393.246" gradientUnits="userSpaceOnUse">
<stop stop-color="#09005D"/>
<stop offset="1" stop-color="#1A0F91"/>
</linearGradient>
<linearGradient id="paint23_linear_655_383" x1="63.8414" y1="370.654" x2="61.7753" y2="388.685" gradientUnits="userSpaceOnUse">
<stop stop-color="#FEBBBA"/>
<stop offset="1" stop-color="#FF928E"/>
</linearGradient>
<linearGradient id="paint24_linear_655_383" x1="136.847" y1="247.164" x2="-33.6511" y2="435.33" gradientUnits="userSpaceOnUse">
<stop stop-color="#09005D"/>
<stop offset="1" stop-color="#1A0F91"/>
</linearGradient>
<linearGradient id="paint25_linear_655_383" x1="166.381" y1="169.052" x2="128.972" y2="202.841" gradientUnits="userSpaceOnUse">
<stop stop-color="#4F52FF"/>
<stop offset="1" stop-color="#4042E2"/>
</linearGradient>
<linearGradient id="paint26_linear_655_383" x1="42.1486" y1="245.991" x2="52.0531" y2="245.991" gradientUnits="userSpaceOnUse">
<stop stop-color="#FEBBBA"/>
<stop offset="1" stop-color="#FF928E"/>
</linearGradient>
<linearGradient id="paint27_linear_655_383" x1="872.728" y1="-518.733" x2="885.884" y2="-530.808" gradientUnits="userSpaceOnUse">
<stop stop-color="#FEBBBA"/>
<stop offset="1" stop-color="#FF928E"/>
</linearGradient>
<linearGradient id="paint28_linear_655_383" x1="39.9843" y1="234.936" x2="55.6344" y2="226.308" gradientUnits="userSpaceOnUse">
<stop stop-color="#09005D"/>
<stop offset="1" stop-color="#1A0F91"/>
</linearGradient>
<linearGradient id="paint29_linear_655_383" x1="870.983" y1="-520.642" x2="884.138" y2="-532.717" gradientUnits="userSpaceOnUse">
<stop stop-color="#FEBBBA"/>
<stop offset="1" stop-color="#FF928E"/>
</linearGradient>
<linearGradient id="paint30_linear_655_383" x1="151.245" y1="152.295" x2="113.836" y2="186.083" gradientUnits="userSpaceOnUse">
<stop stop-color="#4F52FF"/>
<stop offset="1" stop-color="#4042E2"/>
</linearGradient>
<linearGradient id="paint31_linear_655_383" x1="37.2841" y1="227.18" x2="-65.9147" y2="310.518" gradientUnits="userSpaceOnUse">
<stop stop-color="#FEBBBA"/>
<stop offset="1" stop-color="#FF928E"/>
</linearGradient>
<linearGradient id="paint32_linear_655_383" x1="21.127" y1="216.57" x2="15.5339" y2="234.947" gradientUnits="userSpaceOnUse">
<stop stop-color="#FEBBBA"/>
<stop offset="1" stop-color="#FF928E"/>
</linearGradient>
<linearGradient id="paint33_linear_655_383" x1="167.667" y1="170.476" x2="130.258" y2="204.265" gradientUnits="userSpaceOnUse">
<stop stop-color="#4F52FF"/>
<stop offset="1" stop-color="#4042E2"/>
</linearGradient>
<linearGradient id="paint34_linear_655_383" x1="76.3793" y1="247.31" x2="29.2965" y2="285.331" gradientUnits="userSpaceOnUse">
<stop stop-color="#FEBBBA"/>
<stop offset="1" stop-color="#FF928E"/>
</linearGradient>
<linearGradient id="paint35_linear_655_383" x1="74.1639" y1="218.168" x2="79.757" y2="236.545" gradientUnits="userSpaceOnUse">
<stop stop-color="#FEBBBA"/>
<stop offset="1" stop-color="#FF928E"/>
</linearGradient>
</defs>
</svg>
