<svg width="100" height="33" viewBox="0 0 100 33" fill="none" xmlns="http://www.w3.org/2000/svg">
<path d="M99.3846 19.3561C100.32 18.4704 100.172 17.2204 99.0558 16.5787L96.9512 15.3673C95.8351 14.7253 95.1643 13.1741 95.4602 11.9211L97.9946 1.17716C98.2901 -0.0758831 97.7669 -0.377036 96.832 0.508642L83.8484 12.8026C82.9131 13.6883 83.0614 14.9379 84.1775 15.5803L86.2818 16.791C87.3975 17.4334 88.0691 18.9845 87.7736 20.2372L85.2384 30.9811C84.9433 32.2341 85.4661 32.5349 86.4014 31.6496L99.3846 19.3561Z" fill="#3498DB"/>
<path d="M7.01315 18.0505C2.932 18.0505 0 15.3022 0 11.1108C0 6.91013 2.93219 4.16162 7.01315 4.16162C10.2395 4.16162 12.758 5.85293 13.6588 8.60125L10.3865 9.75021C9.9361 8.24278 8.64008 7.34197 7.01311 7.34197C4.98173 7.34197 3.47429 8.79425 3.47429 11.1106C3.47429 13.4269 4.98173 14.87 7.01311 14.87C8.64004 14.87 9.93607 13.9692 10.3865 12.4618L13.6588 13.6107C12.7579 16.3591 10.2394 18.0504 7.01315 18.0504V18.0505ZM24.0271 4.35475H27.5291V17.8667H24.0271V12.6H19.0451V17.8667H15.5431V4.35475H19.0451V9.58473H24.0271V4.35475ZM39.8281 17.8667L38.9549 15.3665H33.5503L32.6863 17.8667H29.1291L34.1016 4.35475H38.4126L43.3851 17.8667H39.8279H39.8281ZM34.552 12.4804H37.953L36.2525 7.59025L34.552 12.4804ZM51.0969 18.0505C47.0157 18.0505 44.0837 15.2838 44.0837 11.1108C44.0837 6.91013 47.0159 4.16162 51.0969 4.16162C55.1872 4.16162 58.1194 6.90994 58.1194 11.1108C58.1194 15.2838 55.1872 18.0505 51.0969 18.0505ZM51.0969 14.8701C53.1374 14.8701 54.6632 13.427 54.6632 11.1107C54.6632 8.79437 53.1374 7.34209 51.0969 7.34209C49.0655 7.34209 47.558 8.79437 47.558 11.1107C47.558 13.427 49.0655 14.8701 51.0969 14.8701ZM64.9214 18.0505C61.9617 18.0505 59.5536 16.6258 59.1766 13.9142L62.8073 13.0869C62.9084 14.5576 63.8276 15.247 65.0685 15.247C65.9693 15.247 66.5208 14.815 66.5208 14.0429C66.5208 13.0318 65.2247 12.6549 63.7173 12.1402C61.8146 11.5059 59.6821 10.7155 59.6821 8.22447C59.6821 5.70591 61.7227 4.16172 64.6363 4.16172C67.0078 4.16172 69.5905 5.09928 70.1515 7.89358L66.7873 8.72083C66.5943 7.4983 65.9509 6.96519 64.8663 6.96519C63.9011 6.96519 63.2209 7.34205 63.2209 8.13256C63.2209 8.8863 64.4342 9.18961 65.8222 9.63999C67.7617 10.2834 70.1515 11.1658 70.1515 13.8406C70.1515 16.8096 67.6513 18.0505 64.9215 18.0505L64.9214 18.0505ZM73.8467 18.0505C72.8632 18.0505 72.0359 17.2233 72.0359 16.2489C72.0359 15.247 72.8631 14.4198 73.8467 14.4198C74.8394 14.4198 75.6666 15.247 75.6666 16.2489C75.6666 17.2233 74.8394 18.0505 73.8467 18.0505Z" fill="white"/>
<path d="M2.61883 28.2599C2.14803 28.2599 1.67723 28.1717 1.22605 27.9951C0.774861 27.8284 0.372718 27.5832 0.0392335 27.2889C2.19234e-08 27.2497 -0.00980837 27.1908 0.00980836 27.1418L0.353101 25.9746C0.372718 25.9354 0.402143 25.9059 0.441376 25.9059C0.48061 25.8961 0.519843 25.9059 0.549268 25.9354C1.06911 26.4258 1.65761 26.8672 2.39324 26.9064C2.58941 26.9162 2.80519 26.926 2.99155 26.8672C3.57024 26.6808 3.32504 26.0923 2.89347 25.9157C2.74634 25.8569 2.54037 25.7882 2.27554 25.7098C1.88321 25.6019 1.55953 25.4842 1.31432 25.3665C1.04949 25.2488 0.823903 25.0624 0.627735 24.8172C0.441376 24.5622 0.343293 24.2287 0.343293 23.8266C0.343293 23.444 0.441376 23.1106 0.637544 22.8261C0.833711 22.5417 1.10835 22.3161 1.45164 22.169C1.79493 22.0218 2.19707 21.9434 2.64826 21.9434C3.0504 21.9434 3.44274 22.0022 3.83507 22.1297C4.2176 22.2474 4.56089 22.4142 4.86495 22.6103C4.91399 22.6496 4.93361 22.7084 4.90418 22.7673L4.58051 23.8658C4.5707 23.905 4.54127 23.9246 4.50204 23.9345C4.47261 23.9443 4.43338 23.9443 4.40396 23.9246C3.96258 23.65 3.5212 23.3165 3.00136 23.2479C2.65807 23.1988 2.13822 23.2184 2.02052 23.6304C1.8734 24.1601 2.64826 24.2974 3.00136 24.4053C3.39369 24.523 3.71737 24.6407 3.97239 24.7584C4.23721 24.8859 4.47261 25.082 4.65897 25.3272C4.85514 25.5823 4.95322 25.9256 4.95322 26.3375C4.95322 26.7397 4.84533 27.0829 4.63936 27.3772C4.44319 27.6714 4.15875 27.8872 3.80565 28.0442C3.45254 28.1815 3.06021 28.2599 2.61883 28.2599ZM7.50732 28.2011C7.43866 28.2011 7.37981 28.1422 7.37981 28.0736V22.1984C7.37981 22.1297 7.43866 22.0709 7.50732 22.0709H8.78241C8.85107 22.0709 8.90992 22.1297 8.90992 22.1984V28.0736C8.90992 28.1422 8.85107 28.2011 8.78241 28.2011H7.50732ZM11.464 28.2011C11.3954 28.2011 11.3365 28.1422 11.3365 28.0736V22.1984C11.3365 22.1297 11.3954 22.0709 11.464 22.0709H12.8764C12.9255 22.0709 12.9745 22.1003 12.9941 22.1395L14.4654 25.7686L15.9268 22.1395C15.9464 22.1003 15.9955 22.0709 16.0445 22.0709H17.4569C17.5256 22.0709 17.5844 22.1297 17.5844 22.1984V28.0736C17.5844 28.1422 17.5256 28.2011 17.4569 28.2011H16.3093C16.2407 28.2011 16.1818 28.1422 16.1818 28.0736V24.9153L14.9852 27.9559C14.9656 27.9951 14.9166 28.0245 14.8773 28.0245H14.0534C14.0044 28.0245 13.9553 27.9951 13.9357 27.9559L12.7293 24.9153V28.0736C12.7293 28.1422 12.6704 28.2011 12.6018 28.2011H11.464ZM20.1287 28.2011C20.0601 28.2011 20.011 28.1422 20.011 28.0736V22.1984C20.011 22.1297 20.0601 22.0709 20.1287 22.0709H22.5318C23.2772 22.0709 23.8657 22.2572 24.2777 22.6398C24.8858 23.189 25.0918 24.2287 24.7975 24.9938C24.6896 25.2684 24.5033 25.5234 24.2679 25.7098C23.4734 26.3277 22.4827 26.2688 21.5313 26.2688V28.0736C21.5313 28.1422 21.4725 28.2011 21.4038 28.2011H20.1287ZM21.5313 24.9055C21.5313 24.9055 22.7672 25.0428 23.1987 24.7584C23.3655 24.6505 23.4636 24.3856 23.4636 24.1895C23.4538 23.9737 23.3459 23.7481 23.1693 23.6108C22.983 23.4538 22.522 23.4048 22.2866 23.4048L21.5313 23.4244V24.9055ZM27.4987 28.2011C27.4301 28.2011 27.3712 28.1422 27.3712 28.0736V22.1984C27.3712 22.1297 27.4301 22.0709 27.4987 22.0709H28.7738C28.8425 22.0709 28.9013 22.1297 28.9013 22.1984V26.7887H31.1082C31.1769 26.7887 31.2357 26.8475 31.2357 26.9162V28.0736C31.2357 28.1422 31.1769 28.2011 31.1082 28.2011H27.4987ZM33.7898 28.2011C33.7212 28.2011 33.6623 28.1422 33.6623 28.0736V22.1984C33.6623 22.1297 33.7212 22.0709 33.7898 22.0709H35.0649C35.1336 22.0709 35.1924 22.1297 35.1924 22.1984V28.0736C35.1924 28.1422 35.1336 28.2011 35.0649 28.2011H33.7898ZM37.7465 28.2011C37.6779 28.2011 37.619 28.1422 37.619 28.0736V22.1984C37.619 22.1297 37.6779 22.0709 37.7465 22.0709H41.7974C41.8366 22.0709 41.866 22.0807 41.8856 22.1101C41.9151 22.1297 41.9249 22.1591 41.9249 22.1984L41.9151 23.2969C41.9151 23.3656 41.8562 23.4244 41.7876 23.4244H39.1393V24.6112H40.8067C40.8754 24.6112 40.9342 24.6701 40.9342 24.7387V25.8471C40.9342 25.9157 40.8754 25.9746 40.8067 25.9746H39.1393V28.0736C39.1393 28.1422 39.0903 28.2011 39.0216 28.2011H37.7465ZM44.2828 28.2011C44.2141 28.2011 44.1553 28.1422 44.1553 28.0736V22.1984C44.1553 22.1297 44.2141 22.0709 44.2828 22.0709H45.5579C45.6266 22.0709 45.6854 22.1297 45.6854 22.1984V28.0736C45.6854 28.1422 45.6266 28.2011 45.5579 28.2011H44.2828ZM48.112 28.2011V22.3259C48.112 22.0807 48.161 22.0316 48.2395 22.0316H52.5356C52.6042 22.0316 52.6631 22.0807 52.6631 22.1493V23.2577C52.6631 23.3263 52.6042 23.3852 52.5356 23.3852H49.6323V24.4053H51.4664C51.5351 24.4053 51.594 24.4641 51.594 24.5328V25.6313C51.594 25.7 51.5351 25.7588 51.4664 25.7588H49.6323V26.8083H52.5258C52.5944 26.8083 52.6533 26.8672 52.6533 26.9358V28.0344C52.6533 28.103 52.5944 28.1619 52.5258 28.1619H48.2395C48.161 28.1619 48.112 28.103 48.112 28.2011ZM55.2172 28.2011C55.1387 28.2011 55.0897 28.1422 55.0897 28.0736V22.1984C55.0897 22.1297 55.1387 22.0709 55.2172 22.0709H57.4437C58.0322 22.0709 58.5716 22.1984 59.0424 22.4632C59.5132 22.7182 59.8761 23.0811 60.141 23.5519C60.396 24.0129 60.5333 24.5426 60.5333 25.1311C60.5333 25.7294 60.396 26.259 60.1312 26.72C59.8663 27.1908 59.4936 27.5537 59.013 27.8088C58.5422 28.0736 57.9929 28.2011 57.3946 28.2011H55.2172ZM56.61 26.8279H57.4731C57.7575 26.8279 58.0224 26.7593 58.248 26.622C58.4735 26.4748 58.6599 26.2787 58.7874 26.0236C58.9149 25.7686 58.9836 25.4744 58.9836 25.1409C58.9836 24.8172 58.9149 24.5132 58.7776 24.2581C58.6403 23.9933 58.4539 23.7971 58.2185 23.65C57.9831 23.5127 57.7085 23.4342 57.4142 23.4342H56.61V26.8279Z" fill="#3498DB"/>
</svg>
