<svg width="375" height="812" viewBox="0 0 375 812" fill="none" xmlns="http://www.w3.org/2000/svg">
<rect width="375" height="812" fill="#34495E"/>
<path d="M286.769 412.712C288.64 410.941 288.344 408.441 286.112 407.157L281.902 404.735C279.67 403.451 278.329 400.348 278.92 397.842L283.989 376.354C284.58 373.848 283.534 373.246 281.664 375.017L255.697 399.605C253.826 401.377 254.123 403.876 256.355 405.161L260.564 407.582C262.795 408.867 264.138 411.969 263.547 414.474L258.477 435.962C257.887 438.468 258.932 439.07 260.803 437.299L286.769 412.712Z" fill="#3498DB"/>
<path d="M102.026 410.101C93.864 410.101 88 404.604 88 396.222C88 387.82 93.8644 382.323 102.026 382.323C108.479 382.323 113.516 385.706 115.318 391.203L108.773 393.501C107.872 390.486 105.28 388.684 102.026 388.684C97.9635 388.684 94.9486 391.589 94.9486 396.221C94.9486 400.854 97.9635 403.74 102.026 403.74C105.28 403.74 107.872 401.939 108.773 398.924L115.318 401.222C113.516 406.718 108.479 410.101 102.026 410.101V410.101ZM136.054 382.71H143.058V409.733H136.054V399.2H126.09V409.733H119.086V382.71H126.09V393.17H136.054V382.71ZM167.656 409.733L165.91 404.733H155.101L153.373 409.733H146.258L156.203 382.71H164.825L174.77 409.733H167.656H167.656ZM157.104 398.961H163.906L160.505 389.181L157.104 398.961ZM190.194 410.101C182.031 410.101 176.167 404.568 176.167 396.222C176.167 387.82 182.032 382.323 190.194 382.323C198.374 382.323 204.239 387.82 204.239 396.222C204.239 404.568 198.374 410.101 190.194 410.101ZM190.194 403.74C194.275 403.74 197.326 400.854 197.326 396.222C197.326 391.589 194.275 388.684 190.194 388.684C186.131 388.684 183.116 391.589 183.116 396.222C183.116 400.854 186.131 403.74 190.194 403.74ZM217.843 410.101C211.923 410.101 207.107 407.252 206.353 401.828L213.615 400.174C213.817 403.115 215.655 404.494 218.137 404.494C219.939 404.494 221.042 403.63 221.042 402.086C221.042 400.064 218.449 399.31 215.435 398.28C211.629 397.012 207.364 395.431 207.364 390.449C207.364 385.412 211.445 382.324 217.273 382.324C222.016 382.324 227.181 384.199 228.303 389.787L221.575 391.442C221.189 388.997 219.902 387.93 217.733 387.93C215.802 387.93 214.442 388.684 214.442 390.265C214.442 391.773 216.868 392.379 219.644 393.28C223.523 394.567 228.303 396.332 228.303 401.681C228.303 407.619 223.303 410.101 217.843 410.101L217.843 410.101ZM235.693 410.101C233.726 410.101 232.072 408.447 232.072 406.498C232.072 404.494 233.726 402.84 235.693 402.84C237.679 402.84 239.333 404.494 239.333 406.498C239.333 408.447 237.679 410.101 235.693 410.101Z" fill="white"/>
<path d="M93.2377 430.52C92.2961 430.52 91.3545 430.343 90.4521 429.99C89.5497 429.657 88.7454 429.166 88.0785 428.578C88 428.499 87.9804 428.382 88.0196 428.284L88.7062 425.949C88.7454 425.871 88.8043 425.812 88.8828 425.812C88.9612 425.792 89.0397 425.812 89.0985 425.871C90.1382 426.852 91.3152 427.734 92.7865 427.813C93.1788 427.832 93.6104 427.852 93.9831 427.734C95.1405 427.362 94.6501 426.185 93.7869 425.831C93.4927 425.714 93.0807 425.576 92.5511 425.419C91.7664 425.204 91.1191 424.968 90.6286 424.733C90.099 424.497 89.6478 424.125 89.2555 423.634C88.8828 423.124 88.6866 422.457 88.6866 421.653C88.6866 420.888 88.8828 420.221 89.2751 419.652C89.6674 419.083 90.2167 418.632 90.9033 418.338C91.5899 418.044 92.3941 417.887 93.2965 417.887C94.1008 417.887 94.8855 418.004 95.6701 418.259C96.4352 418.495 97.1218 418.828 97.7299 419.221C97.828 419.299 97.8672 419.417 97.8084 419.534L97.161 421.732C97.1414 421.81 97.0825 421.849 97.0041 421.869C96.9452 421.888 96.8668 421.888 96.8079 421.849C95.9252 421.3 95.0424 420.633 94.0027 420.496C93.3161 420.398 92.2764 420.437 92.041 421.261C91.7468 422.32 93.2965 422.595 94.0027 422.81C94.7874 423.046 95.4347 423.281 95.9448 423.517C96.4744 423.772 96.9452 424.164 97.3179 424.654C97.7103 425.164 97.9064 425.851 97.9064 426.675C97.9064 427.479 97.6907 428.166 97.2787 428.754C96.8864 429.343 96.3175 429.774 95.6113 430.088C94.9051 430.363 94.1204 430.52 93.2377 430.52ZM103.015 430.402C102.877 430.402 102.76 430.284 102.76 430.147V418.397C102.76 418.259 102.877 418.142 103.015 418.142H105.565C105.702 418.142 105.82 418.259 105.82 418.397V430.147C105.82 430.284 105.702 430.402 105.565 430.402H103.015ZM110.928 430.402C110.791 430.402 110.673 430.284 110.673 430.147V418.397C110.673 418.259 110.791 418.142 110.928 418.142H113.753C113.851 418.142 113.949 418.201 113.988 418.279L116.931 425.537L119.854 418.279C119.893 418.201 119.991 418.142 120.089 418.142H122.914C123.051 418.142 123.169 418.259 123.169 418.397V430.147C123.169 430.284 123.051 430.402 122.914 430.402H120.619C120.481 430.402 120.364 430.284 120.364 430.147V423.831L117.97 429.912C117.931 429.99 117.833 430.049 117.755 430.049H116.107C116.009 430.049 115.911 429.99 115.871 429.912L113.459 423.831V430.147C113.459 430.284 113.341 430.402 113.204 430.402H110.928ZM128.257 430.402C128.12 430.402 128.022 430.284 128.022 430.147V418.397C128.022 418.259 128.12 418.142 128.257 418.142H133.064C134.554 418.142 135.731 418.514 136.555 419.279C137.772 420.378 138.184 422.457 137.595 423.987C137.379 424.537 137.007 425.047 136.536 425.419C134.947 426.655 132.965 426.538 131.063 426.538V430.147C131.063 430.284 130.945 430.402 130.808 430.402H128.257ZM131.063 423.811C131.063 423.811 133.534 424.086 134.397 423.517C134.731 423.301 134.927 422.771 134.927 422.379C134.908 421.947 134.692 421.496 134.339 421.222C133.966 420.908 133.044 420.81 132.573 420.81L131.063 420.849V423.811ZM142.997 430.402C142.86 430.402 142.742 430.284 142.742 430.147V418.397C142.742 418.259 142.86 418.142 142.997 418.142H145.548C145.685 418.142 145.803 418.259 145.803 418.397V427.577H150.216C150.354 427.577 150.471 427.695 150.471 427.832V430.147C150.471 430.284 150.354 430.402 150.216 430.402H142.997ZM155.58 430.402C155.442 430.402 155.325 430.284 155.325 430.147V418.397C155.325 418.259 155.442 418.142 155.58 418.142H158.13C158.267 418.142 158.385 418.259 158.385 418.397V430.147C158.385 430.284 158.267 430.402 158.13 430.402H155.58ZM163.493 430.402C163.356 430.402 163.238 430.284 163.238 430.147V418.397C163.238 418.259 163.356 418.142 163.493 418.142H171.595C171.673 418.142 171.732 418.161 171.771 418.22C171.83 418.259 171.85 418.318 171.85 418.397L171.83 420.594C171.83 420.731 171.712 420.849 171.575 420.849H166.279V423.222H169.613C169.751 423.222 169.868 423.34 169.868 423.477V425.694C169.868 425.831 169.751 425.949 169.613 425.949H166.279V430.147C166.279 430.284 166.181 430.402 166.043 430.402H163.493ZM176.566 430.402C176.428 430.402 176.311 430.284 176.311 430.147V418.397C176.311 418.259 176.428 418.142 176.566 418.142H179.116C179.253 418.142 179.371 418.259 179.371 418.397V430.147C179.371 430.284 179.253 430.402 179.116 430.402H176.566ZM184.224 430.402V418.652C184.224 418.161 184.322 418.063 184.479 418.063H193.071C193.208 418.063 193.326 418.161 193.326 418.299V420.515C193.326 420.653 193.208 420.77 193.071 420.77H187.265V422.81H190.933C191.07 422.81 191.188 422.928 191.188 423.065V425.263C191.188 425.4 191.07 425.518 190.933 425.518H187.265V427.617H193.052C193.189 427.617 193.307 427.734 193.307 427.872V430.069C193.307 430.206 193.189 430.324 193.052 430.324H184.479C184.322 430.324 184.224 430.206 184.224 430.402ZM198.434 430.402C198.277 430.402 198.179 430.284 198.179 430.147V418.397C198.179 418.259 198.277 418.142 198.434 418.142H202.887C204.064 418.142 205.143 418.397 206.085 418.926C207.026 419.436 207.752 420.162 208.282 421.104C208.792 422.026 209.067 423.085 209.067 424.262C209.067 425.459 208.792 426.518 208.262 427.44C207.733 428.382 206.987 429.107 206.026 429.617C205.084 430.147 203.986 430.402 202.789 430.402H198.434ZM201.22 427.656H202.946C203.515 427.656 204.045 427.518 204.496 427.244C204.947 426.95 205.32 426.557 205.575 426.047C205.83 425.537 205.967 424.949 205.967 424.282C205.967 423.634 205.83 423.026 205.555 422.516C205.281 421.987 204.908 421.594 204.437 421.3C203.966 421.025 203.417 420.868 202.828 420.868H201.22V427.656Z" fill="#3498DB"/>
</svg>
